<svg width="74" height="74" viewBox="0 0 74 74" fill="none" xmlns="http://www.w3.org/2000/svg">
<path d="M36.7204 0.489764C28.1574 0.47586 19.864 3.48298 13.2998 8.98179H60.1348C53.5737 3.48202 45.2817 0.474671 36.7204 0.489764ZM36.7204 73.3469C45.2025 73.3626 53.4228 70.4105 59.9569 65.0021H13.4778C20.0148 70.4096 28.2367 73.3615 36.7204 73.3469ZM54.1094 18.9832H68.4796C67.2958 16.8976 65.9107 14.933 64.344 13.1174H9.12133C6.81724 15.7728 4.91155 18.7491 3.46407 21.953H51.9925L54.1094 18.9832ZM36.3707 39.0597H0.291838C0.464868 42.061 1.01107 45.0291 1.91784 47.8954H32.9959L35.1374 44.8827H72.3268C72.7555 42.9669 73.0285 41.0196 73.1428 39.0597H36.3707ZM44.4884 31.9299H72.8667C72.5983 29.9416 72.1631 27.9794 71.5659 26.064H1.86876C0.976936 28.9322 0.445173 31.9002 0.285706 34.8996H42.3777L44.4884 31.9299ZM9.22564 60.8666H23.6756L25.7863 57.8968H66.5468C67.8552 56.0519 68.9872 54.088 69.9277 52.031H3.51316C4.97873 55.2376 6.90305 58.214 9.22564 60.8666Z" fill="#748296"/>
</svg>
