<svg width="17" height="17" viewBox="0 0 17 17" fill="none" xmlns="http://www.w3.org/2000/svg">
<g clip-path="url(#clip0_79_4364)">
<path d="M13.4667 8.19458H4.13332C3.39694 8.19458 2.79999 8.79153 2.79999 9.52791V14.1946C2.79999 14.931 3.39694 15.5279 4.13332 15.5279H13.4667C14.203 15.5279 14.8 14.931 14.8 14.1946V9.52791C14.8 8.79153 14.203 8.19458 13.4667 8.19458Z" stroke="#748296" stroke-width="1.5" stroke-linecap="round" stroke-linejoin="round"/>
<path d="M5.46666 8.19452V5.52785C5.46583 4.70122 5.77218 3.90376 6.32624 3.2903C6.88031 2.67683 7.64255 2.29112 8.465 2.20805C9.28745 2.12497 10.1114 2.35046 10.777 2.84073C11.4425 3.331 11.9022 4.05108 12.0667 4.86119" stroke="#748296" stroke-width="1.5" stroke-linecap="round" stroke-linejoin="round"/>
</g>
<defs>
<clipPath id="clip0_79_4364">
<rect width="16" height="16" fill="white" transform="translate(0.800049 0.861084)"/>
</clipPath>
</defs>
</svg>
