<svg width="39" height="39" viewBox="0 0 39 39" fill="none" xmlns="http://www.w3.org/2000/svg">
<path d="M19.5 39C30.2696 39 39 30.2696 39 19.5C39 8.73045 30.2696 0 19.5 0C8.73045 0 0 8.73045 0 19.5C0 30.2696 8.73045 39 19.5 39Z" fill="#0001FE"/>
<path d="M23.1188 10.5632L17.6636 16.1373V10.5678L23.1188 10.5632Z" fill="white"/>
<path d="M16.1276 10.5632L10.6724 16.1373V10.5678L16.1276 10.5632Z" fill="white"/>
<path d="M30.1139 10.5632L24.6587 16.1373V10.5678L30.1139 10.5632Z" fill="white"/>
<path d="M23.1188 17.7638L17.6636 23.3378V17.7638H23.1188Z" fill="white"/>
<path d="M16.1276 17.7638L10.6724 23.3378V17.7638H16.1276Z" fill="white"/>
<path d="M30.1139 17.7638L24.6587 23.3378V17.7638H30.1139Z" fill="white"/>
<path d="M23.1188 24.9463L17.6636 30.5203V24.9509L23.1188 24.9463Z" fill="white"/>
<path d="M16.1276 24.9463L10.6724 30.5203V24.9509L16.1276 24.9463Z" fill="white"/>
<path d="M30.1139 24.9463L24.6587 30.5203V24.9509L30.1139 24.9463Z" fill="white"/>
</svg>
