<svg xmlns="http://www.w3.org/2000/svg" width="140" height="50.366" viewBox="0 0 140 50.366">
  <g id="ntt-logo-color" transform="translate(-1159 9174)">
    <path id="Trazado_2" data-name="Trazado 2" d="M26.621,43.817A20.066,20.066,0,0,1,6.544,23.646C6.544,13.3,14.011,6.23,19.88,6.493A15.506,15.506,0,0,0,15.415,17.2a11.208,11.208,0,1,0,22.413,0A15.515,15.515,0,0,0,33.362,6.493C39.231,6.23,46.7,13.3,46.7,23.646A20.067,20.067,0,0,1,26.621,43.817m0-35.652a11,11,0,0,1,4.74,8.707c0,2.913-1.923,5.207-4.74,5.207s-4.74-2.294-4.74-5.207a11,11,0,0,1,4.74-8.707M33.068,0a17.8,17.8,0,0,0-6.447,1.208A17.8,17.8,0,0,0,20.173,0C9.572,0,0,10.024,0,23.776a26.621,26.621,0,0,0,53.242,0C53.242,10.024,43.669,0,33.068,0" transform="translate(1159 -9174)" fill="#0072bc"/>
    <path id="Trazado_3" data-name="Trazado 3" d="M77.91,11.181v5.26h2.941v9.681l-7.9-14.94H63.846v5.26h2.936v16.1H63.846V37.8H75.894V32.545h-2.94V22.869l7.9,14.932h6.166V16.441h2.942v-5.26Z" transform="translate(1159.044 -9173.992)"/>
    <path id="Trazado_4" data-name="Trazado 4" d="M114.972,21.405V11.182H91.8V21.405h5.261V16.441H99.9V32.546H96.053V37.8h14.669V32.546H106.88V16.441h2.836v4.964Z" transform="translate(1159.064 -9173.992)"/>
    <path id="Trazado_5" data-name="Trazado 5" d="M139.919,21.405V11.182h-23.17V21.405h5.261V16.441h2.832V32.546H121V37.8h14.677V32.546h-3.847V16.441h2.833v4.964Z" transform="translate(1159.081 -9173.992)"/>
  </g>
</svg>
