<svg width="277" height="35" viewBox="0 0 277 35" fill="none" xmlns="http://www.w3.org/2000/svg">
<path d="M15.9111 19.4385H12.6504V17.3818H15.9111C16.415 17.3818 16.8252 17.2998 17.1416 17.1357C17.458 16.9658 17.6895 16.7314 17.8359 16.4326C17.9824 16.1338 18.0557 15.7969 18.0557 15.4219C18.0557 15.041 17.9824 14.6865 17.8359 14.3584C17.6895 14.0303 17.458 13.7666 17.1416 13.5674C16.8252 13.3682 16.415 13.2686 15.9111 13.2686H13.5645V24H10.9277V11.2031H15.9111C16.9131 11.2031 17.7715 11.3848 18.4863 11.748C19.207 12.1055 19.7578 12.6006 20.1387 13.2334C20.5195 13.8662 20.71 14.5898 20.71 15.4043C20.71 16.2305 20.5195 16.9453 20.1387 17.5488C19.7578 18.1523 19.207 18.6182 18.4863 18.9463C17.7715 19.2744 16.9131 19.4385 15.9111 19.4385ZM21.8438 19.3418V19.1572C21.8438 18.46 21.9434 17.8184 22.1426 17.2324C22.3418 16.6406 22.6318 16.1279 23.0127 15.6943C23.3936 15.2607 23.8623 14.9238 24.4189 14.6836C24.9756 14.4375 25.6143 14.3145 26.335 14.3145C27.0557 14.3145 27.6973 14.4375 28.2598 14.6836C28.8223 14.9238 29.2939 15.2607 29.6748 15.6943C30.0615 16.1279 30.3545 16.6406 30.5537 17.2324C30.7529 17.8184 30.8525 18.46 30.8525 19.1572V19.3418C30.8525 20.0332 30.7529 20.6748 30.5537 21.2666C30.3545 21.8525 30.0615 22.3652 29.6748 22.8047C29.2939 23.2383 28.8252 23.5752 28.2686 23.8154C27.7119 24.0557 27.0732 24.1758 26.3525 24.1758C25.6318 24.1758 24.9902 24.0557 24.4277 23.8154C23.8711 23.5752 23.3994 23.2383 23.0127 22.8047C22.6318 22.3652 22.3418 21.8525 22.1426 21.2666C21.9434 20.6748 21.8438 20.0332 21.8438 19.3418ZM24.375 19.1572V19.3418C24.375 19.7402 24.4102 20.1123 24.4805 20.458C24.5508 20.8037 24.6621 21.1084 24.8145 21.3721C24.9727 21.6299 25.1777 21.832 25.4297 21.9785C25.6816 22.125 25.9893 22.1982 26.3525 22.1982C26.7041 22.1982 27.0059 22.125 27.2578 21.9785C27.5098 21.832 27.7119 21.6299 27.8643 21.3721C28.0166 21.1084 28.1279 20.8037 28.1982 20.458C28.2744 20.1123 28.3125 19.7402 28.3125 19.3418V19.1572C28.3125 18.7705 28.2744 18.4072 28.1982 18.0674C28.1279 17.7217 28.0137 17.417 27.8555 17.1533C27.7031 16.8838 27.501 16.6729 27.249 16.5205C26.9971 16.3682 26.6924 16.292 26.335 16.292C25.9775 16.292 25.6729 16.3682 25.4209 16.5205C25.1748 16.6729 24.9727 16.8838 24.8145 17.1533C24.6621 17.417 24.5508 17.7217 24.4805 18.0674C24.4102 18.4072 24.375 18.7705 24.375 19.1572ZM35.124 21.5391L37.1016 14.4902H38.71L38.1914 17.2588L36.2139 24H34.8691L35.124 21.5391ZM34.1221 14.4902L35.5371 21.5303L35.6689 24H34.0869L31.6787 14.4902H34.1221ZM40.5205 21.416L41.9004 14.4902H44.3525L41.9443 24H40.3711L40.5205 21.416ZM38.9297 14.4902L40.8984 21.4863L41.1709 24H39.8174L37.8398 17.2676L37.3389 14.4902H38.9297ZM50.0039 24.1758C49.2656 24.1758 48.6035 24.0586 48.0176 23.8242C47.4316 23.584 46.9336 23.2529 46.5234 22.8311C46.1191 22.4092 45.8086 21.9199 45.5918 21.3633C45.375 20.8008 45.2666 20.2031 45.2666 19.5703V19.2188C45.2666 18.498 45.3691 17.8389 45.5742 17.2412C45.7793 16.6436 46.0723 16.125 46.4531 15.6855C46.8398 15.2461 47.3086 14.9092 47.8594 14.6748C48.4102 14.4346 49.0312 14.3145 49.7227 14.3145C50.3965 14.3145 50.9941 14.4258 51.5156 14.6484C52.0371 14.8711 52.4736 15.1875 52.8252 15.5977C53.1826 16.0078 53.4521 16.5 53.6338 17.0742C53.8154 17.6426 53.9062 18.2754 53.9062 18.9727V20.0273H46.3477V18.3398H51.4189V18.1465C51.4189 17.7949 51.3545 17.4814 51.2256 17.2061C51.1025 16.9248 50.915 16.7021 50.6631 16.5381C50.4111 16.374 50.0889 16.292 49.6963 16.292C49.3623 16.292 49.0752 16.3652 48.835 16.5117C48.5947 16.6582 48.3984 16.8633 48.2461 17.127C48.0996 17.3906 47.9883 17.7012 47.9121 18.0586C47.8418 18.4102 47.8066 18.7969 47.8066 19.2188V19.5703C47.8066 19.9512 47.8594 20.3027 47.9648 20.625C48.0762 20.9473 48.2314 21.2256 48.4307 21.46C48.6357 21.6943 48.8818 21.876 49.1689 22.0049C49.4619 22.1338 49.793 22.1982 50.1621 22.1982C50.6191 22.1982 51.0439 22.1104 51.4365 21.9346C51.835 21.7529 52.1777 21.4805 52.4648 21.1172L53.6953 22.4531C53.4961 22.7402 53.2236 23.0156 52.8779 23.2793C52.5381 23.543 52.1279 23.7598 51.6475 23.9297C51.167 24.0938 50.6191 24.1758 50.0039 24.1758ZM57.8789 16.5645V24H55.3477V14.4902H57.7295L57.8789 16.5645ZM60.7441 14.4287L60.7002 16.7754C60.5771 16.7578 60.4277 16.7432 60.252 16.7314C60.082 16.7139 59.9268 16.7051 59.7861 16.7051C59.4287 16.7051 59.1182 16.752 58.8545 16.8457C58.5967 16.9336 58.3799 17.0654 58.2041 17.2412C58.0342 17.417 57.9053 17.6309 57.8174 17.8828C57.7354 18.1348 57.6885 18.4219 57.6768 18.7441L57.167 18.5859C57.167 17.9707 57.2285 17.4053 57.3516 16.8896C57.4746 16.3682 57.6533 15.9141 57.8877 15.5273C58.1279 15.1406 58.4209 14.8418 58.7666 14.6309C59.1123 14.4199 59.5078 14.3145 59.9531 14.3145C60.0938 14.3145 60.2373 14.3262 60.3838 14.3496C60.5303 14.3672 60.6504 14.3936 60.7441 14.4287ZM66.1406 24.1758C65.4023 24.1758 64.7402 24.0586 64.1543 23.8242C63.5684 23.584 63.0703 23.2529 62.6602 22.8311C62.2559 22.4092 61.9453 21.9199 61.7285 21.3633C61.5117 20.8008 61.4033 20.2031 61.4033 19.5703V19.2188C61.4033 18.498 61.5059 17.8389 61.7109 17.2412C61.916 16.6436 62.209 16.125 62.5898 15.6855C62.9766 15.2461 63.4453 14.9092 63.9961 14.6748C64.5469 14.4346 65.168 14.3145 65.8594 14.3145C66.5332 14.3145 67.1309 14.4258 67.6523 14.6484C68.1738 14.8711 68.6104 15.1875 68.9619 15.5977C69.3193 16.0078 69.5889 16.5 69.7705 17.0742C69.9521 17.6426 70.043 18.2754 70.043 18.9727V20.0273H62.4844V18.3398H67.5557V18.1465C67.5557 17.7949 67.4912 17.4814 67.3623 17.2061C67.2393 16.9248 67.0518 16.7021 66.7998 16.5381C66.5479 16.374 66.2256 16.292 65.833 16.292C65.499 16.292 65.2119 16.3652 64.9717 16.5117C64.7314 16.6582 64.5352 16.8633 64.3828 17.127C64.2363 17.3906 64.125 17.7012 64.0488 18.0586C63.9785 18.4102 63.9434 18.7969 63.9434 19.2188V19.5703C63.9434 19.9512 63.9961 20.3027 64.1016 20.625C64.2129 20.9473 64.3682 21.2256 64.5674 21.46C64.7725 21.6943 65.0186 21.876 65.3057 22.0049C65.5986 22.1338 65.9297 22.1982 66.2988 22.1982C66.7559 22.1982 67.1807 22.1104 67.5732 21.9346C67.9717 21.7529 68.3145 21.4805 68.6016 21.1172L69.832 22.4531C69.6328 22.7402 69.3604 23.0156 69.0146 23.2793C68.6748 23.543 68.2646 23.7598 67.7842 23.9297C67.3037 24.0938 66.7559 24.1758 66.1406 24.1758ZM77.1006 21.9258V10.5H79.6494V24H77.3555L77.1006 21.9258ZM71.0889 19.3594V19.1748C71.0889 18.4482 71.1709 17.7891 71.335 17.1973C71.499 16.5996 71.7393 16.0869 72.0557 15.6592C72.3721 15.2314 72.7617 14.9004 73.2246 14.666C73.6875 14.4316 74.2148 14.3145 74.8066 14.3145C75.3633 14.3145 75.8496 14.4316 76.2656 14.666C76.6875 14.9004 77.0449 15.2344 77.3379 15.668C77.6367 16.0957 77.877 16.6025 78.0586 17.1885C78.2402 17.7686 78.3721 18.4043 78.4541 19.0957V19.5C78.3721 20.1621 78.2402 20.7773 78.0586 21.3457C77.877 21.9141 77.6367 22.4121 77.3379 22.8398C77.0449 23.2617 76.6875 23.5898 76.2656 23.8242C75.8438 24.0586 75.3516 24.1758 74.7891 24.1758C74.1973 24.1758 73.6699 24.0557 73.207 23.8154C72.75 23.5752 72.3633 23.2383 72.0469 22.8047C71.7363 22.3711 71.499 21.8613 71.335 21.2754C71.1709 20.6895 71.0889 20.0508 71.0889 19.3594ZM73.6201 19.1748V19.3594C73.6201 19.752 73.6494 20.1182 73.708 20.458C73.7725 20.7979 73.875 21.0996 74.0156 21.3633C74.1621 21.6211 74.3496 21.8232 74.5781 21.9697C74.8125 22.1104 75.0967 22.1807 75.4307 22.1807C75.8643 22.1807 76.2217 22.084 76.5029 21.8906C76.7842 21.6914 76.998 21.4189 77.1445 21.0732C77.2969 20.7275 77.3848 20.3291 77.4082 19.8779V18.7266C77.3906 18.3574 77.3379 18.0264 77.25 17.7334C77.168 17.4346 77.0449 17.1797 76.8809 16.9688C76.7227 16.7578 76.5234 16.5938 76.2832 16.4766C76.0488 16.3594 75.7705 16.3008 75.4482 16.3008C75.1201 16.3008 74.8389 16.377 74.6045 16.5293C74.3701 16.6758 74.1797 16.8779 74.0332 17.1357C73.8926 17.3936 73.7871 17.6982 73.7168 18.0498C73.6523 18.3955 73.6201 18.7705 73.6201 19.1748ZM86.1094 10.5H88.6406V21.8203L88.3857 24H86.1094V10.5ZM94.6611 19.1484V19.333C94.6611 20.042 94.585 20.6924 94.4326 21.2842C94.2861 21.876 94.0576 22.3887 93.7471 22.8223C93.4365 23.25 93.0498 23.584 92.5869 23.8242C92.1299 24.0586 91.5908 24.1758 90.9697 24.1758C90.3896 24.1758 89.8857 24.0586 89.458 23.8242C89.0361 23.5898 88.6816 23.2588 88.3945 22.8311C88.1074 22.4033 87.876 21.9023 87.7002 21.3281C87.5244 20.7539 87.3926 20.127 87.3047 19.4473V19.043C87.3926 18.3633 87.5244 17.7363 87.7002 17.1621C87.876 16.5879 88.1074 16.0869 88.3945 15.6592C88.6816 15.2314 89.0361 14.9004 89.458 14.666C89.8799 14.4316 90.3779 14.3145 90.9521 14.3145C91.5791 14.3145 92.124 14.4346 92.5869 14.6748C93.0557 14.9092 93.4424 15.2432 93.7471 15.6768C94.0576 16.1045 94.2861 16.6143 94.4326 17.2061C94.585 17.792 94.6611 18.4395 94.6611 19.1484ZM92.1299 19.333V19.1484C92.1299 18.7617 92.1006 18.3984 92.042 18.0586C91.9893 17.7129 91.8955 17.4111 91.7607 17.1533C91.626 16.8896 91.4414 16.6816 91.207 16.5293C90.9785 16.377 90.6826 16.3008 90.3193 16.3008C89.9736 16.3008 89.6807 16.3594 89.4404 16.4766C89.2002 16.5938 89.001 16.7578 88.8428 16.9688C88.6904 17.1797 88.5762 17.4316 88.5 17.7246C88.4238 18.0117 88.377 18.3281 88.3594 18.6738V19.8252C88.377 20.2881 88.4531 20.6982 88.5879 21.0557C88.7285 21.4072 88.9395 21.6855 89.2207 21.8906C89.5078 22.0898 89.8799 22.1895 90.3369 22.1895C90.6943 22.1895 90.9902 22.1191 91.2246 21.9785C91.459 21.8379 91.6406 21.6387 91.7695 21.3809C91.9043 21.123 91.998 20.8213 92.0508 20.4756C92.1035 20.124 92.1299 19.7432 92.1299 19.333ZM98.9502 22.9277L101.473 14.4902H104.188L100.365 25.4326C100.283 25.6729 100.172 25.9307 100.031 26.2061C99.8965 26.4814 99.7119 26.7422 99.4775 26.9883C99.249 27.2402 98.959 27.4453 98.6074 27.6035C98.2617 27.7617 97.8369 27.8408 97.333 27.8408C97.0928 27.8408 96.8965 27.8262 96.7441 27.7969C96.5918 27.7676 96.4102 27.7266 96.1992 27.6738V25.8193C96.2637 25.8193 96.3311 25.8193 96.4014 25.8193C96.4717 25.8252 96.5391 25.8281 96.6035 25.8281C96.9375 25.8281 97.21 25.79 97.4209 25.7139C97.6318 25.6377 97.8018 25.5205 97.9307 25.3623C98.0596 25.21 98.1621 25.0107 98.2383 24.7646L98.9502 22.9277ZM97.8955 14.4902L99.9609 21.3809L100.321 24.0615L98.5986 24.2461L95.1797 14.4902H97.8955Z" fill="black"/>
<path d="M171.611 27V24.7043L178.449 14.7888H171.977V11.272H184.481V13.6654L177.716 23.4832H184.628V27H171.611ZM192.592 27.2442C191.241 27.2442 190.044 27.0244 189.002 26.5848C187.977 26.1289 187.171 25.4533 186.585 24.5578C186.015 23.6623 185.73 22.5551 185.73 21.2363C185.73 19.3965 186.251 17.9312 187.293 16.8403C188.335 15.7332 189.89 15.1796 191.957 15.1796C193.846 15.1796 195.32 15.6599 196.378 16.6205C197.452 17.5811 197.99 18.8918 197.99 20.5525V22.5796H189.955C190.166 23.1983 190.582 23.6379 191.2 23.8984C191.819 24.1589 192.658 24.2891 193.716 24.2891C194.383 24.2891 195.051 24.2321 195.718 24.1182C196.402 23.9879 196.948 23.8414 197.355 23.6786V26.4383C196.215 26.9756 194.628 27.2442 192.592 27.2442ZM189.955 20.0885H194.033V19.6733C194.033 19.2174 193.887 18.8429 193.594 18.5499C193.317 18.2568 192.82 18.1103 192.104 18.1103C191.306 18.1103 190.744 18.2812 190.419 18.6231C190.109 18.9488 189.955 19.4372 189.955 20.0885ZM200.022 13.8852V10.5638H204.98V13.8852H200.022ZM200.389 27V18.7697H198.704L199.094 15.4238H204.98V27H200.389ZM212.14 27.2442C210.593 27.2442 209.47 26.8535 208.77 26.072C208.07 25.2904 207.72 24.2321 207.72 22.897V18.8185H206.205V15.4238H207.72V13.0548L212.311 11.9558V15.4238H214.973L214.802 18.8185H212.311V22.5551C212.311 23.0436 212.433 23.3936 212.677 23.6053C212.922 23.8007 213.296 23.8984 213.801 23.8984C214.273 23.8984 214.753 23.817 215.242 23.6541V26.7069C214.379 27.0651 213.345 27.2442 212.14 27.2442ZM221.54 31.2983C220.97 31.2983 220.351 31.2739 219.684 31.2251C219.016 31.1925 218.381 31.1274 217.779 31.0297C217.193 30.932 216.704 30.818 216.313 30.6878V27.7571C216.753 27.9036 217.258 28.0257 217.828 28.1234C218.414 28.2211 219.008 28.2944 219.61 28.3432C220.213 28.3921 220.766 28.4165 221.271 28.4165C222.134 28.4165 222.81 28.3677 223.298 28.27C223.803 28.1886 224.055 28.0339 224.055 27.8059C224.055 27.6106 223.974 27.4803 223.811 27.4152C223.648 27.3663 223.339 27.3419 222.883 27.3419H219.83C218.642 27.3419 217.722 27.1547 217.07 26.7802C216.435 26.3894 216.118 25.8114 216.118 25.0462C216.118 23.9716 216.712 23.2227 217.901 22.7994C217.233 22.4574 216.745 22.026 216.435 21.505C216.126 20.984 215.971 20.3246 215.971 19.5268C215.971 18.0289 216.476 16.9299 217.486 16.2298C218.511 15.5296 219.985 15.1796 221.906 15.1796C222.313 15.1796 222.769 15.2122 223.274 15.2773C223.778 15.3261 224.145 15.375 224.373 15.4238H228.915L228.818 18.208H227.279C227.572 18.5824 227.719 19.0383 227.719 19.5756C227.719 20.7642 227.369 21.7085 226.668 22.4086C225.985 23.0924 224.902 23.4343 223.42 23.4343C223.209 23.4343 222.981 23.4262 222.736 23.4099C222.492 23.3774 222.264 23.3529 222.053 23.3366C221.694 23.3692 221.385 23.4343 221.125 23.532C220.864 23.6297 220.734 23.7925 220.734 24.0205C220.734 24.1833 220.807 24.2973 220.954 24.3624C221.1 24.4112 221.304 24.4357 221.564 24.4357H224.226C225.415 24.4357 226.351 24.7124 227.035 25.266C227.719 25.8196 228.06 26.6337 228.06 27.7082C228.06 28.848 227.531 29.7272 226.473 30.3459C225.415 30.9808 223.77 31.2983 221.54 31.2983ZM221.93 20.9188C222.647 20.9188 223.143 20.7967 223.42 20.5525C223.697 20.3083 223.835 19.9012 223.835 19.3314C223.835 18.7615 223.697 18.3464 223.42 18.0858C223.143 17.8253 222.647 17.6951 221.93 17.6951C221.263 17.6951 220.774 17.8253 220.465 18.0858C220.172 18.3301 220.026 18.7453 220.026 19.3314C220.026 19.885 220.164 20.292 220.441 20.5525C220.734 20.7967 221.23 20.9188 221.93 20.9188ZM236.5 27.2442C235.149 27.2442 233.952 27.0244 232.91 26.5848C231.884 26.1289 231.078 25.4533 230.492 24.5578C229.922 23.6623 229.637 22.5551 229.637 21.2363C229.637 19.3965 230.158 17.9312 231.2 16.8403C232.242 15.7332 233.797 15.1796 235.865 15.1796C237.754 15.1796 239.227 15.6599 240.286 16.6205C241.36 17.5811 241.897 18.8918 241.897 20.5525V22.5796H233.863C234.074 23.1983 234.489 23.6379 235.108 23.8984C235.727 24.1589 236.565 24.2891 237.624 24.2891C238.291 24.2891 238.959 24.2321 239.626 24.1182C240.31 23.9879 240.855 23.8414 241.262 23.6786V26.4383C240.123 26.9756 238.535 27.2442 236.5 27.2442ZM233.863 20.0885H237.941V19.6733C237.941 19.2174 237.795 18.8429 237.501 18.5499C237.225 18.2568 236.728 18.1103 236.012 18.1103C235.214 18.1103 234.652 18.2812 234.327 18.6231C234.017 18.9488 233.863 19.4372 233.863 20.0885ZM243.93 13.8852V10.5638H248.888V13.8852H243.93ZM244.296 27V18.7697H242.611L243.002 15.4238H248.888V27H244.296ZM255.608 27.2442C254.615 27.2442 253.679 27.171 252.8 27.0244C251.937 26.8942 251.253 26.7232 250.748 26.5116V23.2145C251.318 23.475 251.994 23.6786 252.775 23.8251C253.573 23.9716 254.249 24.0449 254.802 24.0449C255.388 24.0449 255.828 24.0286 256.121 23.9961C256.43 23.9635 256.585 23.8251 256.585 23.5809C256.585 23.3041 256.316 23.0924 255.779 22.9459C255.242 22.7994 254.566 22.5877 253.752 22.3109C252.694 21.9364 251.904 21.4968 251.383 20.9921C250.862 20.4874 250.602 19.7547 250.602 18.7941C250.602 17.6381 251.057 16.7508 251.969 16.1321C252.881 15.4971 254.314 15.1796 256.268 15.1796C257.016 15.1796 257.79 15.2366 258.588 15.3505C259.385 15.4645 260.012 15.5948 260.468 15.7413V18.9651C259.98 18.7534 259.442 18.5987 258.856 18.501C258.286 18.4033 257.765 18.3545 257.293 18.3545C256.772 18.3545 256.308 18.3789 255.901 18.4278C255.494 18.4766 255.291 18.615 255.291 18.8429C255.291 19.1034 255.519 19.2907 255.974 19.4047C256.447 19.5186 257.073 19.6977 257.855 19.9419C258.734 20.2025 259.418 20.4874 259.906 20.7967C260.411 21.1061 260.761 21.4806 260.957 21.9202C261.168 22.3598 261.274 22.9052 261.274 23.5565C261.274 24.7287 260.794 25.6405 259.833 26.2918C258.889 26.9267 257.48 27.2442 255.608 27.2442ZM267.591 27.2442C266.044 27.2442 264.921 26.8535 264.221 26.072C263.521 25.2904 263.171 24.2321 263.171 22.897V18.8185H261.656V15.4238H263.171V13.0548L267.762 11.9558V15.4238H270.424L270.253 18.8185H267.762V22.5551C267.762 23.0436 267.884 23.3936 268.128 23.6053C268.373 23.8007 268.747 23.8984 269.252 23.8984C269.724 23.8984 270.204 23.817 270.693 23.6541V26.7069C269.83 27.0651 268.796 27.2442 267.591 27.2442Z" fill="black"/>
<g clip-path="url(#clip0_550_616)">
<path d="M139.503 -9.49111e-05C135.389 -0.0067744 131.405 1.43782 128.252 4.07941H150.751C147.599 1.43736 143.616 -0.00734549 139.503 -9.49111e-05V-9.49111e-05ZM139.503 34.9999C143.578 35.0075 147.527 33.5893 150.666 30.9911H128.337C131.478 33.5888 135.427 35.0069 139.503 34.9999V34.9999ZM147.856 8.88402H154.76C154.191 7.88212 153.526 6.93831 152.773 6.0661H126.245C125.138 7.34174 124.222 8.77155 123.527 10.3107H146.84L147.856 8.88402ZM139.335 18.5286H122.003C122.086 19.9704 122.348 21.3963 122.784 22.7732H137.714L138.742 21.3259H156.608C156.814 20.4056 156.945 19.4701 157 18.5286H139.335ZM143.235 15.1035H156.867C156.738 14.1483 156.529 13.2057 156.242 12.2856H122.76C122.332 13.6634 122.077 15.0892 122 16.5301H142.221L143.235 15.1035ZM126.295 29.0045H133.236L134.25 27.5778H153.831C154.46 26.6915 155.004 25.7481 155.455 24.7599H123.55C124.254 26.3003 125.179 27.7302 126.295 29.0045V29.0045Z" fill="black"/>
</g>
<defs>
<clipPath id="clip0_550_616">
<rect width="35" height="35" fill="white" transform="translate(122)"/>
</clipPath>
</defs>
</svg>
