<svg width="269" height="279" viewBox="0 0 269 279" fill="none" xmlns="http://www.w3.org/2000/svg">
<g clip-path="url(#clip0_9530_2269)">
<path d="M242.319 122.826L161.496 193.422L162.415 194.473L243.238 123.878L242.319 122.826Z" fill="#C7DDFF"/>
<path fill-rule="evenodd" clip-rule="evenodd" d="M137.207 196.234L130.281 101.648L131.758 102.776L138.594 196.135L137.207 196.234Z" fill="#C7DDFF"/>
<path d="M95.4205 82.6509L94.1016 83.1113L131.249 189.434L132.568 188.974L95.4205 82.6509Z" fill="#C7DDFF"/>
<path fill-rule="evenodd" clip-rule="evenodd" d="M186.632 1.24697C137.335 -6.34344 91.7408 21.5346 81.4922 64.1048C86.1924 51.4474 129.262 51.5671 178.839 64.6633C229.213 77.969 267.194 99.5234 263.681 112.809C263.551 113.288 263.402 113.866 263.212 114.525C265.088 109.597 266.475 104.421 267.304 99.0446C274.419 52.9835 238.294 9.19646 186.632 1.24697Z" fill="#397BFF"/>
<path fill-rule="evenodd" clip-rule="evenodd" d="M221.153 12.916C226.272 29.1441 232.17 59.2864 188.891 67.4752C234.166 80.8507 266.957 100.42 263.684 112.808C263.554 113.287 264.802 113.726 264.622 114.384C271.598 96.0615 269.791 76.2625 262.367 58.0795C254.773 39.4775 240.203 23.4089 221.143 12.916H221.153Z" fill="#0243D3"/>
<path fill-rule="evenodd" clip-rule="evenodd" d="M199.548 4.05918C211.672 12.8365 215.834 40.6946 208.629 71.2757C208.429 72.1036 208.23 72.9314 208.02 73.7493C224.017 79.5544 237.578 85.9977 247.348 92.2915C251.29 55.1872 235.443 21.0952 208.11 6.89187C205.326 5.8346 202.462 4.88705 199.548 4.05918ZM150.041 58.3391C150.101 58.0698 150.161 57.8005 150.231 57.5312C157.376 27.1596 173.363 4.18885 188.052 1.47585C187.573 1.39605 187.104 1.31626 186.625 1.23647C182.903 0.657959 179.19 0.288912 175.518 0.109375C147.117 2.05436 120.373 23.2896 107.121 54.7683C118.747 54.2796 133.556 55.4665 150.031 58.3291L150.041 58.3391Z" fill="#70A5F9"/>
<path fill-rule="evenodd" clip-rule="evenodd" d="M222.35 16.9963C225.802 29.7434 227.708 47.9165 210.913 59.2173C210.345 63.1671 209.596 67.1968 208.628 71.2762C208.429 72.1041 208.229 72.932 208.02 73.7498C224.016 79.5549 237.578 85.9982 247.347 92.292C250.541 62.2196 240.731 34.1221 222.34 16.9863L222.35 16.9963Z" fill="#0044FE"/>
<path fill-rule="evenodd" clip-rule="evenodd" d="M264.781 113.885C261.159 127.58 217.101 127.809 166.377 114.414C115.643 101.008 77.852 77.8581 81.4745 64.1735C85.0969 50.4788 128.756 51.4363 179.479 64.8417C230.203 78.2471 268.394 100.2 264.771 113.895L264.781 113.885Z" fill="#0044FE"/>
<path fill-rule="evenodd" clip-rule="evenodd" d="M133.535 103.762C133.445 102.984 133.475 102.226 133.625 101.478C135.97 90.1775 166.556 88.7412 201.493 95.9825C229.155 101.708 251.239 111.153 258.084 120.449C243.375 127.132 207.011 125.147 166.366 114.415C154.611 111.313 143.544 107.682 133.535 103.762Z" fill="#397BFF"/>
<path fill-rule="evenodd" clip-rule="evenodd" d="M105.594 54.4688L95.5253 84.1621C85.3266 76.7911 80.0077 69.7094 81.4747 64.1737C83.0214 58.3088 91.9328 55.1271 105.594 54.4688Z" fill="#0035AA"/>
<path fill-rule="evenodd" clip-rule="evenodd" d="M180.507 65.111L166.366 114.414C153.643 111.052 141.738 107.083 131.09 102.794L144.103 57.2812C155.16 59.0367 167.105 61.5602 179.479 64.8318C179.818 64.9215 180.167 65.0113 180.507 65.111Z" fill="#0035AA"/>
<path fill-rule="evenodd" clip-rule="evenodd" d="M132.227 98.815C138.634 93.7281 154.291 91.0151 172.823 91.9028L166.366 114.405C153.643 111.043 141.738 107.074 131.09 102.785L132.227 98.805V98.815Z" fill="#0044FE"/>
<path fill-rule="evenodd" clip-rule="evenodd" d="M215.046 76.3537L202.852 121.936C217.321 124.031 230.234 124.739 240.493 124.051L249.145 93.3399C240.543 87.6047 228.847 81.7498 215.046 76.3438V76.3537Z" fill="#0035AA"/>
<path fill-rule="evenodd" clip-rule="evenodd" d="M209.328 97.7383C223.309 101.12 235.483 105.438 244.425 110.116L240.493 124.06C230.234 124.739 217.311 124.03 202.852 121.936L209.328 97.7383Z" fill="#0044FE"/>
<path d="M108.264 54.0728L106.895 54.3477L136.013 199.344L137.383 199.069L108.264 54.0728Z" fill="#C7DDFF"/>
<path d="M244.955 90.0123L155.719 195.895L156.787 196.794L246.024 90.9119L244.955 90.0123Z" fill="#C7DDFF"/>
<path d="M207.138 72.5235L147.516 201.791L148.784 202.376L208.407 73.1081L207.138 72.5235Z" fill="#C7DDFF"/>
<path fill-rule="evenodd" clip-rule="evenodd" d="M154.65 195.704L153.492 194.926L202.4 121.875L203.927 122.094L154.65 195.704Z" fill="#C7DDFF"/>
<path d="M150.2 57.6073L138.16 203.984L139.553 204.099L151.593 57.7217L150.2 57.6073Z" fill="#C7DDFF"/>
<path fill-rule="evenodd" clip-rule="evenodd" d="M185.216 239.661C179.717 265.584 154.749 282.491 129.452 277.434C104.155 272.377 88.0988 247.262 93.5873 221.338C99.0858 195.415 124.054 178.509 149.351 183.566C174.648 188.623 190.704 213.738 185.216 239.661Z" fill="#397BFF"/>
<path fill-rule="evenodd" clip-rule="evenodd" d="M116.721 272.836C136.49 273.005 163.922 267.709 176.606 242.684L186.006 234.654C185.826 236.32 185.567 237.986 185.208 239.661C179.709 265.584 154.741 282.491 129.444 277.434C124.874 276.516 120.613 274.95 116.711 272.836H116.721Z" fill="#0243D3"/>
<path fill-rule="evenodd" clip-rule="evenodd" d="M185.834 235.782C180.655 260.628 155.967 276.596 130.7 271.45C105.433 266.303 89.1567 241.996 94.3358 217.15C99.515 192.304 124.203 176.335 149.471 181.482C174.738 186.629 191.014 210.936 185.834 235.782Z" fill="#0243D3"/>
<path fill-rule="evenodd" clip-rule="evenodd" d="M130.5 271.409C106.381 265.424 91.0926 241.745 96.132 217.568C101.311 192.722 126 176.753 151.267 181.9C151.337 181.91 151.406 181.93 151.476 181.94C175.596 187.924 190.884 211.603 185.844 235.781C180.665 260.627 155.977 276.595 130.71 271.449C130.64 271.439 130.58 271.419 130.51 271.409H130.5Z" fill="#397BFF"/>
<path fill-rule="evenodd" clip-rule="evenodd" d="M177.373 234.065C173.152 254.313 153.034 267.329 132.437 263.14C111.84 258.951 98.5777 239.132 102.799 218.884C107.02 198.637 127.138 185.62 147.735 189.809C168.332 193.999 181.594 213.817 177.373 234.065Z" fill="#70A5F9"/>
<path fill-rule="evenodd" clip-rule="evenodd" d="M102.729 220.242C98.5481 239.842 111.85 259.052 132.447 263.152C153.044 267.251 173.142 254.683 177.323 235.074C181.515 215.475 168.202 196.264 147.605 192.165C144.971 191.646 142.356 191.387 139.772 191.387C122.139 191.387 106.382 203.136 102.729 220.232V220.242Z" fill="#0243D3"/>
</g>
<g clip-path="url(#clip1_9530_2269)">
<path fill-rule="evenodd" clip-rule="evenodd" d="M53.838 161.819C53.6459 161.762 53.5533 161.584 53.6032 161.419L66.5836 118.945C66.6335 118.78 66.8114 118.695 66.9751 118.738C67.1387 118.788 67.2312 118.966 67.1814 119.13L54.2009 161.605C54.1511 161.762 53.9946 161.848 53.838 161.819Z" fill="#C7DDFF"/>
<path fill-rule="evenodd" clip-rule="evenodd" d="M50.2009 164.54C50.0443 164.505 49.9304 164.355 49.9518 164.19L53.6951 136.655C53.7164 136.483 53.873 136.362 54.0438 136.383C54.2146 136.398 54.3356 136.562 54.3142 136.733L50.5709 164.269C50.5496 164.44 50.393 164.562 50.2222 164.54C50.2151 164.54 50.208 164.54 50.2009 164.54Z" fill="#C7DDFF"/>
<path fill-rule="evenodd" clip-rule="evenodd" d="M50.1999 164.54C50.0718 164.511 49.965 164.404 49.9508 164.268L46.9476 140.167C46.9263 139.996 47.0544 139.839 47.2252 139.825C47.396 139.803 47.5525 139.932 47.5668 140.103L50.5699 164.204C50.5913 164.375 50.4632 164.533 50.2924 164.547C50.2568 164.547 50.2283 164.547 50.1928 164.547L50.1999 164.54Z" fill="#C7DDFF"/>
<path fill-rule="evenodd" clip-rule="evenodd" d="M49.658 168.069C49.5726 168.055 49.4943 167.998 49.4445 167.912L36.4071 144.482C36.3217 144.332 36.3786 144.139 36.5281 144.054C36.6775 143.968 36.8697 144.025 36.9551 144.175L49.9925 167.605C50.0779 167.755 50.0209 167.948 49.8715 168.033C49.8074 168.069 49.7292 168.083 49.658 168.069Z" fill="#C7DDFF"/>
<path fill-rule="evenodd" clip-rule="evenodd" d="M49.6605 168.068C49.5965 168.054 49.5395 168.026 49.4968 167.976L27.1724 144.353C27.0514 144.225 27.0585 144.032 27.1866 143.91C27.3147 143.789 27.5069 143.803 27.6279 143.925L49.9523 167.547C50.0733 167.676 50.0662 167.869 49.9381 167.99C49.8598 168.061 49.7602 168.09 49.6605 168.068Z" fill="#C7DDFF"/>
<path fill-rule="evenodd" clip-rule="evenodd" d="M44.0856 165.841C44.0429 165.834 44.0002 165.812 43.9647 165.791L6.12624 138.041C5.98391 137.941 5.95545 137.741 6.05508 137.605C6.15471 137.462 6.35397 137.434 6.48918 137.534L44.3276 165.277C44.4699 165.377 44.4984 165.577 44.3988 165.712C44.3276 165.812 44.1995 165.862 44.0856 165.834V165.841Z" fill="#C7DDFF"/>
<path fill-rule="evenodd" clip-rule="evenodd" d="M68.0641 115.653C68.2135 114.911 68.3416 114.161 68.4412 113.418C68.9892 109.355 67.9431 105.249 65.4737 101.985C60.2502 95.0872 52.4078 89.9242 43.0211 88.0104C23.3654 84.0043 4.39277 95.787 0.649496 114.318C-0.674173 120.866 0.0872927 127.379 2.47844 133.242C3.38935 135.47 4.94786 137.369 6.99029 138.633C11.1748 141.211 15.9144 143.132 21.0738 144.189C42.9357 148.638 63.9792 135.87 68.0641 115.66V115.653Z" fill="#0044FE"/>
<path fill-rule="evenodd" clip-rule="evenodd" d="M27.1914 97.6214C33.0483 94.1008 61.0232 96.643 67.2929 118.73C65.0227 126.321 60.2902 132.698 54.0633 137.275C51.971 126.892 45.552 105.684 27.1914 97.6214Z" fill="#70A5F9"/>
<path fill-rule="evenodd" clip-rule="evenodd" d="M27.1922 97.6224C24.9576 99.9575 13.0446 117.632 27.7615 145.017C25.5554 144.91 23.3208 144.639 21.0791 144.182C15.9196 143.132 11.1801 141.211 6.99555 138.626C6.03482 138.033 5.17373 137.291 4.44784 136.448C3.10283 127.286 4.76809 104.856 27.1993 97.6152L27.1922 97.6224Z" fill="#70A5F9"/>
<path fill-rule="evenodd" clip-rule="evenodd" d="M27.1941 97.6221C27.1941 97.6221 25.543 93.7588 29.45 87.6889C33.8053 87.0034 38.3954 87.0677 43.014 88.0103C45.8322 88.5816 48.5151 89.4528 51.0343 90.5739L52.8775 91.4594C52.4007 91.2166 51.9096 90.981 51.4186 90.7524C46.5509 88.9743 37.3137 87.2462 27.1941 97.6221Z" fill="#70A5F9"/>
<path fill-rule="evenodd" clip-rule="evenodd" d="M14.0406 93.9238C19.1289 94.0524 23.6692 94.8093 27.1848 97.6229C24.5588 98.2156 16.5314 97.1016 2.95312 107.213C5.41543 101.843 9.27969 97.3158 14.0335 93.931L14.0406 93.9238Z" fill="#70A5F9"/>
<path fill-rule="evenodd" clip-rule="evenodd" d="M63.7841 171.482C65.1718 179.302 60.4109 186.714 53.1591 188.035C45.9003 189.356 38.8977 184.079 37.51 176.259C36.1223 168.44 40.8832 161.028 48.1349 159.707C55.3937 158.385 62.3964 163.663 63.7841 171.482Z" fill="#0243D3"/>
<path fill-rule="evenodd" clip-rule="evenodd" d="M49.2806 188.128C54.5325 186.043 61.2149 181.601 61.8341 173.26L63.4424 170.004C63.5776 170.489 63.6915 170.982 63.7769 171.482C65.1646 179.302 60.4036 186.714 53.1519 188.035C51.8425 188.271 50.5402 188.292 49.2734 188.128H49.2806Z" fill="#F39D1E"/>
<path fill-rule="evenodd" clip-rule="evenodd" d="M64.2059 173.003C65.558 180.494 60.7758 187.607 53.5169 188.899C46.2581 190.192 39.2839 185.171 37.9318 177.681C36.5797 170.19 41.362 163.077 48.6208 161.785C55.8796 160.492 62.8538 165.519 64.2059 173.003Z" fill="#70A5F9"/>
<path fill-rule="evenodd" clip-rule="evenodd" d="M53.46 188.905C46.4147 189.841 39.7679 184.885 38.4513 177.594C37.0992 170.103 41.8815 162.991 49.1403 161.698L49.2328 161.684C50.6846 161.498 52.115 161.555 53.4885 161.834C58.7761 162.912 63.1598 167.218 64.2059 172.995C65.5581 180.486 60.7758 187.599 53.517 188.891H53.46V188.905Z" fill="#397BFF"/>
<path fill-rule="evenodd" clip-rule="evenodd" d="M61.7798 173.438C62.8829 179.543 58.9831 185.342 53.0693 186.391C47.1554 187.441 41.4694 183.349 40.3663 177.251C39.2633 171.145 43.1631 165.347 49.0769 164.297C54.9907 163.247 60.6768 167.339 61.7798 173.445V173.438Z" fill="#70A5F9"/>
<path fill-rule="evenodd" clip-rule="evenodd" d="M49.2967 164.962C43.39 166.04 39.4474 171.717 40.4864 177.637C41.5254 183.557 47.1617 187.477 53.0613 186.399C58.968 185.321 62.9105 179.644 61.8715 173.724C61.0745 169.21 57.6158 165.854 53.3958 164.997C52.0792 164.733 50.6986 164.704 49.2967 164.962Z" fill="#0243D3"/>
</g>
<defs>
<clipPath id="clip0_9530_2269">
<rect width="187.767" height="278.322" fill="white" transform="translate(81.2344)"/>
</clipPath>
<clipPath id="clip1_9530_2269">
<rect width="68.5817" height="101.874" fill="white" transform="translate(0 87.2246)"/>
</clipPath>
</defs>
</svg>
