<svg xmlns="http://www.w3.org/2000/svg" xmlns:xlink="http://www.w3.org/1999/xlink" viewBox="0 0 383.73 274.77"><defs><style>.cls-1{isolation:isolate;}.cls-2{fill:#878787;}.cls-3{fill:#0b0807;}.cls-4{fill:#262626;}.cls-5{fill:#343434;}.cls-6{fill:#2d160d;}.cls-7{fill:#a84a17;}.cls-8{fill:#482212;}.cls-9{fill:#6b4e41;}.cls-10{fill:#3c2217;}.cls-11{fill:#2a1810;}.cls-12{fill:#634b43;}.cls-13{fill:#8f7168;}.cls-14{fill:#583628;}.cls-15,.cls-17{fill:#010101;}.cls-16{fill:#b2b2b2;}.cls-17{opacity:0.5;}.cls-18{fill:#724a3c;}.cls-19{fill:#3b2422;}.cls-20{fill:#32ae9b;}.cls-21{fill:#1e100a;}.cls-22{fill:url(#linear-gradient);}.cls-23{fill:#dedee9;}.cls-24{fill:#202020;}.cls-25{fill:#e9ecf7;}.cls-26{fill:#88d0e6;}.cls-27{fill:#9b4c3c;}.cls-28{fill:#e94a28;}.cls-29{fill:#1b120b;}.cls-30{fill:#360f13;}.cls-31{fill:#fbf4e8;}.cls-32{fill:#783710;}.cls-33{fill:#110a16;}.cls-34{fill:#4a305c;}.cls-35{fill:#ed6c49;}.cls-36{fill:#0e060c;}.cls-37{fill:#52bfce;}.cls-38{fill:#834133;}.cls-39{fill:#00aae0;}.cls-40{fill:#0468b2;}.cls-41{fill:#1f3c90;}.cls-42{fill:#e94d22;}.cls-43{fill:#d1a788;}.cls-44{fill:#7f4f3c;}.cls-45{fill:#0071a4;}.cls-46{fill:#ed6b6b;mix-blend-mode:saturation;}.cls-47{fill:#020202;}.cls-48{fill:#847575;}.cls-49{fill:#856d69;fill-rule:evenodd;}.cls-50{fill:#84757a;}.cls-51{fill:#a09eb1;}.cls-52{fill:#9ed7ec;}.cls-53{fill:#ddd39e;}.cls-54{fill:#824e53;}.cls-55{fill:#371325;}.cls-56{fill:#1a070f;}.cls-57{fill:#8b5a58;}.cls-58{fill:#f5a47f;}.cls-59{fill:#f5c2aa;}.cls-60{fill:#ee7151;}.cls-61{fill:#f29266;}.cls-62{fill:#cc594a;}.cls-63{fill:#e05b4b;}</style><linearGradient id="linear-gradient" x1="-753.62" y1="-3067.09" x2="234.64" y2="-3268.82" gradientTransform="matrix(0.67, 0, 0, -0.67, 253.24, -2014.81)" gradientUnits="userSpaceOnUse"><stop offset="0" stop-color="#fff"/><stop offset="1" stop-color="#c2c1c1"/></linearGradient></defs><g class="cls-1"><g id="Layer_2" data-name="Layer 2"><g id="Layer_1-2" data-name="Layer 1"><g id="Layer1_5_MEMBER_2_MEMBER_0_MEMBER_0_MEMBER_7_FILL" data-name="Layer1 5 MEMBER 2 MEMBER 0 MEMBER 0 MEMBER 7 FILL"><path class="cls-2" d="M37.74,139.72c-3.79,1.86-7.5,1.13-10.09,3.84-2.77,2.79-1.92,2.4-7.68,1.92-2,5.54-5.22-5.42-4.76-3.57q.3,9.6-7,4.91a29.05,29.05,0,0,1-4.38-4l-.19-.15v-.11l-2.21-2L1.41,143a19.47,19.47,0,0,0-.09,14.33c-.81.2-1.1.67-.87,1.42q3.69,8.89,10.53,13a4.6,4.6,0,0,0,3.42,4.09,21.54,21.54,0,0,0,15.3-.49,71.22,71.22,0,0,0,15.13-8.74q.75,7.53-19.37,13Q50.84,182,54.1,162.41a18.81,18.81,0,0,0,5.26,15.3q-2.18-11.06,2.72-19.7a114.9,114.9,0,0,1,11.7-16.66q-7.41,9.74-6.25,13.81t2,6.56a34.23,34.23,0,0,0,4.11,6.66q-.81-30.63,20.88-24.44c3.54-4.7,16.15-45.19,23.44-48.41-13.18-4.41-31.21,13.45-50.42,25C51.29,133.15,41.51,138,37.74,139.72Z"/></g><g id="Layer1_2_MEMBER_2_MEMBER_0_MEMBER_0_MEMBER_25_FILL" data-name="Layer1 2 MEMBER 2 MEMBER 0 MEMBER 0 MEMBER 25 FILL"><path class="cls-3" d="M269.14,161.09l-3.79-2.64a30.05,30.05,0,0,0-11.29,7,25.31,25.31,0,0,0-2.3,2.35,7.73,7.73,0,0,0,2.3,1.7,13.17,13.17,0,0,0,8.69,1q-.39-6,6.26-9.33Z"/></g><g id="Layer1_2_MEMBER_3_MEMBER_0_MEMBER_0_MEMBER_0_FILL" data-name="Layer1 2 MEMBER 3 MEMBER 0 MEMBER 0 MEMBER 0 FILL"><path class="cls-2" d="M278.59,46.57h-.25Q264,48.1,254.06,42.7a41.38,41.38,0,0,1-5.28-3.62,22.49,22.49,0,0,0,5.28,6.55Q262.58,53,280,54.45a43.06,43.06,0,0,1-25.94-5.75,57.94,57.94,0,0,1-7.83-5.45A49.88,49.88,0,0,0,268.58,61.6l-14.26-4q18.94,11,43.82,7.11L284,70.25Q302,68.84,324.8,51.94q-20.44,16-15.59,19.08,1.46-7.38,19.76-18.23l21-13.16,1.4-2.56q.76-3.78,5.41-11.11l-.09-.09a.2.2,0,0,1-.25,0v0l-2.22.64a52.53,52.53,0,0,1-19.46,2,244.33,244.33,0,0,1-25-4.05q-14.91-3.15-23.89,3.5L276.16,35q-9.32,5.92-19.54-1.41Q264.07,44.41,278.59,46.57Z"/></g><g id="Layer1_5_MEMBER_1_MEMBER_0_MEMBER_0_MEMBER_0_FILL" data-name="Layer1 5 MEMBER 1 MEMBER 0 MEMBER 0 MEMBER 0 FILL"><path class="cls-4" d="M244.57,146.11q-4.65,4.15-18.2,6.84l-8-.45A125.2,125.2,0,0,1,204.82,156l.59,2.37,11-3.26,2-2,6.7.89q11.35-1.16,19-6A2,2,0,0,0,244.57,146.11Z"/></g><g id="Layer1_5_MEMBER_1_MEMBER_0_MEMBER_0_MEMBER_1_FILL" data-name="Layer1 5 MEMBER 1 MEMBER 0 MEMBER 0 MEMBER 1 FILL"><path class="cls-5" d="M226.24,109.58l-17.84-2.77a227.27,227.27,0,0,0-2.68,29.33q-.14,6-.14,6.08v.58q-2.54,4.42-.76,13.23a125.2,125.2,0,0,0,13.55-3.53l8,.45q13.55-2.69,18.2-6.84c-.27-.92-1.42-1.51-3.44-1.74l-15.43-.45c-3.07-1.61-5.06-3.4-6-5.37v-.17q.49-3,1.07-5.86Q223.11,120.49,226.24,109.58Z"/></g><g id="Layer1_5_MEMBER_2_MEMBER_0_MEMBER_0_MEMBER_0_FILL" data-name="Layer1 5 MEMBER 2 MEMBER 0 MEMBER 0 MEMBER 0 FILL"><path class="cls-6" d="M307.87,226a9.69,9.69,0,0,0,1.52-.67,5.49,5.49,0,0,0-1.43.27l-.09.4M181.76,255.5H182L179,251.88l2.73,3.62m149.76-69.74h-.09l-.09,2.46a15.43,15.43,0,0,0,.18-2.46M378.6,81.69a.44.44,0,0,0-.32.13c-.09,0-.25.14-.49.4a4.61,4.61,0,0,0-.85,1.48c-.33.72-.4,1.16-.22,1.34l.53.31a2.63,2.63,0,0,0,1-.31l1.08-.58.49-.45a1.89,1.89,0,0,0,.22-.76v-.44l-.22-.59-.27-.22a2.3,2.3,0,0,0-.4-.18l-.23-.13s-.1,0-.22,0-.07,0-.13,0m-44.71-54.1,9.16,1.35q-5.81-8.51-17.34-13.33,1.34,5.55,8.18,11.89Z"/></g><g id="Layer1_5_MEMBER_2_MEMBER_0_MEMBER_0_MEMBER_1_FILL" data-name="Layer1 5 MEMBER 2 MEMBER 0 MEMBER 0 MEMBER 1 FILL"><path class="cls-7" d="M212.42,274.77q1.26-5.26-3.48-10.15-5.1,3.58-12.7-.4l0,.67.67,4.25a31,31,0,0,0,15.46,5.63M207.28,230l7.78-4.69q-5-5.82-13.05.89l-.45.36,5.72,3.44m85.48-7.24c-1.94-.8-4.17-.16-6.71,1.92a75.9,75.9,0,0,0-2.9,16.72q8.18-3.53,12.2-7.87l-2.59-10.77M184,230.47l-11-1.79-.58,1.39a19.66,19.66,0,0,0-1.52,4.42,8.92,8.92,0,0,0,.63,4,84.44,84.44,0,0,0,10.06,2l1.43.18a12.79,12.79,0,0,0,3.13-.09Z"/></g><g id="Layer1_5_MEMBER_2_MEMBER_0_MEMBER_0_MEMBER_2_FILL" data-name="Layer1 5 MEMBER 2 MEMBER 0 MEMBER 0 MEMBER 2 FILL"><path class="cls-8" d="M378.6,81.69l-.67-.23-.14.76c.24-.26.4-.4.49-.4a.44.44,0,0,1,.32-.13m-58.57,49,.14.05.22-.85a3.48,3.48,0,0,0-.36.8M265.36,77.8,265,78l.67.13Z"/></g><g id="Layer1_5_MEMBER_2_MEMBER_0_MEMBER_0_MEMBER_3_FILL" data-name="Layer1 5 MEMBER 2 MEMBER 0 MEMBER 0 MEMBER 3 FILL"><path class="cls-9" d="M202,226.22q8-6.71,13.05-.89l1.7-.94q-5.89-9-16.45,1.39l1.25.8Z"/></g><g id="Layer1_5_MEMBER_2_MEMBER_0_MEMBER_0_MEMBER_4_FILL" data-name="Layer1 5 MEMBER 2 MEMBER 0 MEMBER 0 MEMBER 4 FILL"><path class="cls-10" d="M316.9,175.75q-6.84-2.42-15.87-9.08a32.65,32.65,0,0,1-14.75,14.8,62.92,62.92,0,0,1-15.87,5.14l.09.23c7.93-.18,12.54-.35,13.86-.5q9.83-10.23,37.59-8.49l-5.05-2.1M321.82,35c0-.63-.27.57-.81,3.58l-2.41,10.5a70.58,70.58,0,0,0,.76,7.6A49.92,49.92,0,0,0,322,66.49q2,11.58,1.52,17.12l2.73-8.72a3.27,3.27,0,0,1,2.1-1.7c-.83-.59-1.46-1.07-1.88-1.43A10,10,0,0,1,324.64,70a5.85,5.85,0,0,1-.81-1A7.59,7.59,0,0,1,322.62,64a75,75,0,0,1,1.12-18.11l.23-1.11q-.95-3.45-1.57-6.26c.24-1.52.05-2.61-.58-3.27Z"/></g><g id="Layer1_5_MEMBER_2_MEMBER_0_MEMBER_0_MEMBER_5_FILL" data-name="Layer1 5 MEMBER 2 MEMBER 0 MEMBER 0 MEMBER 5 FILL"><path class="cls-11" d="M147.56,213.44a41.13,41.13,0,0,1-14.09-5.95v0l-2.23-.72a61.28,61.28,0,0,0,6,10l.45-.13-.22.45c4.38,5,7.3,8,8.76,8.85l13.05,8q3.23,2.1,5.19,3.57a44.91,44.91,0,0,1,4.29,4.12l9.84,10.1,2.9-.27-2.5.49L182,255.5l3.17,1.93a17.78,17.78,0,0,0,8,4.38l2.9,1.88.18.53q7.6,4,12.7.4.41-2.33-7.51-7.42-5-5.76-8.36-7.15a2.27,2.27,0,0,0-.58-.22q-1.53-1.44-9.39-9.08l-1.43-.18a84.44,84.44,0,0,1-10.06-2,8.92,8.92,0,0,1-.63-4,19.66,19.66,0,0,1,1.52-4.42,74.53,74.53,0,0,0-7.06-5.81q-4.65-3.18-13.82-9.71a23.42,23.42,0,0,0-4.06-1.11m-8.27-17.39-.18.44a4.62,4.62,0,0,0,1.25,2.15,10.87,10.87,0,0,0,4.74,1.88c1.49.2,3.87,1.25,7.15,3.13a67.08,67.08,0,0,1,3.17-14.27,88.82,88.82,0,0,0,3.8-17.74q-28.07,13.63-19.93,24.41m167.46,16.36-5.81,4.33q-6.35,5.64-8.18,6l2.59,10.77q1.8-3.93,12.39-7.82l.22-.13a5.49,5.49,0,0,1,1.43-.27q7.74-4,15.65-23.25,5.58-8.13,6.3-13.86l.09-2.55a13.55,13.55,0,0,0-9.48-7.82q-27.75-1.74-37.59,8.49,11-1.38,27.53,4.12l4.34,2.19-2.37,5.45a158.65,158.65,0,0,1-7.11,14.31m-.58-60.49a45.59,45.59,0,0,1-10.41,10.55,32.8,32.8,0,0,1-12,5.19c-1.82.33-3.31.64-4.47.94-.81.26-3.95,1.07-9.43,2.41q0,4.11-.41,9.21l1,6.39a62.92,62.92,0,0,0,15.87-5.14A32.65,32.65,0,0,0,301,166.67a56.39,56.39,0,0,0,5.14-14.75m-68.62-4.6-.09,0q2.59,5.5-1.48,22.58l-1,3.66,0,.32v-.32l-4-.35v.58q-27.45-1.53-59.73-21.91a40.89,40.89,0,0,1-2.19,11.71,66,66,0,0,0,23.43,9.62q3.3,1.33,13.36,5.81a53.94,53.94,0,0,0,19,4.51,73.89,73.89,0,0,0,9.61.18l5.14,1.34h.31q5.91,6.27,14.13,19.67l9.7,20.3-1.47.54q-14.94,4.91-26.47,2.1l-5.36-2.15-.32,0a11.35,11.35,0,0,0-7,1.07c-3.52.36-5.63-.37-6.35-2.19l-1.7.94,1.12,1.52q2.32,3.61,6.75,2.28a8.67,8.67,0,0,1,7-.49v0q1.74,2.37,5.94,3l.45.09,2.33.18q10.5.76,23.38-3.58l5.36-2,1.12.22-1.39-3.58A128.58,128.58,0,0,0,252.66,196a103.34,103.34,0,0,0-7.73-9.83l-1.57-1.75c-.09-.12-.51-.59-1.25-1.43q-4.47-4.87-5.68-4.78l1.12-4.34.09-.13Q242.61,153.63,237.55,147.32Z"/><path class="cls-12" d="M319.36,56.65q1.31,16.09,1.34,22.27,0,16.39.58,25.84a180.12,180.12,0,0,0,2.19-21.15q.5-5.55-1.52-17.12A49.92,49.92,0,0,1,319.36,56.65Z"/></g><g id="Layer1_5_MEMBER_2_MEMBER_0_MEMBER_0_MEMBER_8_FILL" data-name="Layer1 5 MEMBER 2 MEMBER 0 MEMBER 0 MEMBER 8 FILL"><path class="cls-13" d="M212.9,232.24l5.19-3.13a5.88,5.88,0,0,1-2.28-2.15l-1.12-1.52-7.78,4.69q-2.73,1.58,6,2.11m-40.19-3.45,2.19.36a6.92,6.92,0,0,0-2.72-2.14,7.53,7.53,0,0,1,.53,1.78m-30.4-28.61a4.77,4.77,0,0,0,1.26,2.15l1.69,1a13.87,13.87,0,0,0,3.05.9c1.49.2,3.87,1.25,7.15,3.12.65.33,1.59.87,2.81,1.61q9.93,1.62,14.53,6.49l.14.09a13.46,13.46,0,0,1,5.72,2.81q-4.5-5.42-9.3-6.39l-.13-.09q-4.6-4.87-14.53-6.48c-1.22-.75-2.16-1.28-2.82-1.61q-4.92-2.82-7.15-3.13a14.1,14.1,0,0,1-2.37-.63l-.05.18m-26.24-32.63c0,2-.12,4-.27,6.17a74.63,74.63,0,0,1-2.19,9.88q-1.92,6.84,1.3,11.22a37.93,37.93,0,0,0,5.27,5.72c-.57-.69-1.14-1.4-1.69-2.15q-3.22-4.38-1.3-11.22a74.28,74.28,0,0,0,2.19-9.88c.16-2.39.27-4.68.31-6.88v-3l-1.2.18H117.1a7.32,7.32,0,0,1-1-.05v.05m245.35-73-1.88-.67c-.37-.14-.76-.31-1.16-.49a9.15,9.15,0,0,0,1.29,2.86,11.75,11.75,0,0,0,2.46,1.3c0-.17-.09-.35-.13-.54a7.82,7.82,0,0,1-.22-2.32,2.67,2.67,0,0,1-.36-.14M339.2,79.07c.72.76,1.53,1.54,2.41,2.33a21.63,21.63,0,0,1-1.7-2.37l-.71,0M325.61,42.24A3.79,3.79,0,0,0,325,39v-.31c0-.63-.27.57-.81,3.58l-.62,2.68L323.37,46a72.11,72.11,0,0,0-1.2,11.22c-.08,2.27-.05,4.57.09,6.88a7.4,7.4,0,0,0,.93,4.47l.27.45a5.85,5.85,0,0,0,.81,1,10.09,10.09,0,0,0,1.79,1.79c.25.21.57.46,1,.76a7.53,7.53,0,0,1-1.21-4.92A74.54,74.54,0,0,1,327,49.61l.22-1.12c-.62-2.29-1.14-4.38-1.56-6.25M249.34,84.71q-3.27,1.61-4.11,2.1-4.38,2.28-8.81,5-4.11,1.42-9,3.49-9.88,3.89-25.89,1.29L165.29,85.29l-9.47-2.24,0,0a32.9,32.9,0,0,1-4.87,0l-3.4-.18a96,96,0,0,0-34.42,6.17A92.37,92.37,0,0,0,98.41,103q-7.2,8.67-8.71,16.86a23.22,23.22,0,0,0-.41,6.39q1.48,17.52,6.31,25.21a27.94,27.94,0,0,0,6.88,8.63,18.06,18.06,0,0,0,2,1.34c-.58-.87-1.15-1.8-1.7-2.81q-4.83-7.7-6.3-25.22a23.29,23.29,0,0,1,.4-6.39q1.52-8.19,8.72-16.86a91.84,91.84,0,0,1,14.75-13.9A103.41,103.41,0,0,1,135.16,92a41,41,0,0,0-9.83,5.37,113.13,113.13,0,0,1,25.57-7.24c1.28,0,2.56-.05,3.84-.05l3.4.18a32.9,32.9,0,0,0,4.87,0l0,0,9.48,2.23,36.21,11.36q16,2.58,25.88-1.3,3.41-1.43,6.4-2.55a16,16,0,0,1,5.85-6.84q5.19-3.7,13.77-5.41a53.69,53.69,0,0,0-12.74,7.07,73.41,73.41,0,0,0-5.9,4.82l1.65-.58Q248,96.23,252.38,94q.85-.49,4.11-2.1L260.43,90q6.07-2.69,11.4-4.74l.67.14q18.74-22.66,30.76-35.77l2.23-2.46a108.07,108.07,0,0,1,9.61-13.54q-3.17,4.88-6.26,9.92,6.93-7.29,8.27-7.91A26.77,26.77,0,0,0,322,32.4l.18.09a8,8,0,0,1,10.55,0l.23.18c.32.75.5,1.17.53,1.26l.31-.23a45.79,45.79,0,0,1-2.77-4.16c-2-3.34-3.13-6.19-3.31-8.53a17.51,17.51,0,0,1-2.41-5.32,48.25,48.25,0,0,1,7.42,3.84,39.58,39.58,0,0,1,10.69,5.23c-.47-.68-1-1.35-1.52-2q-1.11-1.27-2.37-2.46-6.88-6.52-18.65-9.16-1.34,4.11,3,11.26a47.23,47.23,0,0,0,2.77,4.16l-.31.22c0-.09-.21-.5-.54-1.25l-.22-.18a8,8,0,0,0-10.55,0l-.18-.09A27.47,27.47,0,0,1,310,28.47q-1.83.84-13.86,14T265.35,78.22l-.68-.13q-5.31,2.05-11.4,4.74l-3.93,1.88m-117.8,3.71a34.36,34.36,0,0,1,15.78-2l.27.08-.27.05a114.47,114.47,0,0,0-25.57,7.24A40.71,40.71,0,0,1,131.54,88.42Z"/><path class="cls-14" d="M272.5,85.38l-.67-.14q-5.32,2.06-11.4,4.74l-3.94,1.88q-3.26,1.61-4.11,2.1Q248,96.24,243.57,99l-1.65.58-1.3,1.21c.11-.29.21-.57.32-.85q-3,1.13-6.4,2.55-9.87,3.89-25.88,1.3L172.45,92.44,163,90.21l0,0a32.9,32.9,0,0,1-4.87,0l-3.4-.18c-1.28,0-2.56,0-3.84.05a113.13,113.13,0,0,0-25.57,7.24A41,41,0,0,1,135.16,92a103.41,103.41,0,0,0-14.84,4.25,91.84,91.84,0,0,0-14.75,13.9q-7.2,8.69-8.72,16.86a23.29,23.29,0,0,0-.4,6.39q1.47,17.52,6.3,25.22c.55,1,1.12,1.94,1.7,2.81A17.85,17.85,0,0,0,114.91,164l1.21-.18v2.33c0,.46,0,.93-.05,1.38a7.32,7.32,0,0,0,1,.05h1.39l1.2-.18v3c0,2.2-.15,4.49-.31,6.88a74.28,74.28,0,0,1-2.19,9.88q-1.92,6.84,1.3,11.22c.55.75,1.12,1.46,1.69,2.15s1.31,1.07,2,1.56a35.83,35.83,0,0,0,8.72,4.74l2.23.72v0a41.13,41.13,0,0,0,14.09,6,23.82,23.82,0,0,1,4.07,1.12,69.27,69.27,0,0,1,13.81,7.15l.22.09.18-.31,0,.49q.7.09-.09.36,5.25.87,6.84,4.56a6.92,6.92,0,0,1,2.72,2.14l8.77,1.43c-.48-2.32-1-4.86-1.7-7.6-.51-.81-1-1.59-1.57-2.32s-1.14-1.6-1.74-2.33a13.46,13.46,0,0,0-5.72-2.81l-.14-.09q-4.61-4.87-14.53-6.49c-1.22-.74-2.16-1.28-2.81-1.61-3.28-1.87-5.66-2.92-7.15-3.12a13.87,13.87,0,0,1-3.05-.9l-1.69-1a4.77,4.77,0,0,1-1.26-2.15l.05-.18a8.31,8.31,0,0,1-2.37-1.25,4.72,4.72,0,0,1-1.25-2.14l.18-.45q-8.14-10.77,19.94-24.41,3.34-1.65,6-2.82a9.72,9.72,0,0,0,3.84-5.18A41,41,0,0,0,170.88,152q32.28,20.39,59.73,21.91v-.58l4,.36h0l1-3.67q4.06-17.09,1.47-22.58v0h.09q5.06,6.3.09,26.42l-.09.13-.8,3.13,1.78.18h.05l1-3.66q4.06-17.08,1.48-22.58v0h.09q5,6.3.09,26.42l-.09.13-.94,3.53q.88.89,1.92,2l0,.05c.49.42,1,.94,1.66,1.56s1.19,1.23,1.88,2l0,0c.72.8,1.12,1.26,1.21,1.38l1.56,1.74a103.25,103.25,0,0,1,7.74,9.84,128.58,128.58,0,0,1,14.48,27.09l1.39,3.58-1.12-.23-5.36,2q-12.88,4.34-23.39,3.58l-2.32-.18-.45-.09q-4.2-.67-5.94-3v0a8.63,8.63,0,0,0-7,.49,6.09,6.09,0,0,1-4.29,0l-.18-.09a5.65,5.65,0,0,1-2.28-2.14l-.94-1.3-.36-.13-5.19,3.13c1.15.07,2.43.13,3.85.17.93.61,1.81,1.16,2.64,1.66q3.27,2.07,5.41,3.17c1.67.75,3.14,1.34,4.42,1.79v.05h.27l.67.22q5.4,1.06,16.63,0,5.24-.45,11.71-1.39c.94,0,1.83,0,2.69-.09q6.82-.36,10.37-3.17a8.82,8.82,0,0,0,1.83-1.83l.36-.67c.22-.19.43-.39.63-.58q7.1-6.81.93-19.27Q272.19,200,270.13,187l-.09-.22-1-6.4c.23-3.4.37-6.47.4-9.21,5.48-1.34,8.63-2.14,9.43-2.41,1.16-.3,2.65-.61,4.47-.94a32.47,32.47,0,0,0,12-5.19A45.39,45.39,0,0,0,305.8,152l1.93-4.82q8.4-8.73,11.93-16.37a3.68,3.68,0,0,1,.36-.8,30.24,30.24,0,0,0,1.57-4.83l.31-5.36-.45-.36q-.45-12.7-.54-14.62-.57-9.44-.58-25.84,0-6.16-1.34-22.26a70.85,70.85,0,0,1-.76-7.6l2.42-10.51q.8-4.52.8-3.58v.32c.63.65.82,1.74.58,3.26.42,1.88.94,4,1.57,6.26l.62-2.68c.54-3,.81-4.21.81-3.58V39a3.79,3.79,0,0,1,.58,3.27c.42,1.87.94,4,1.56,6.25L327,49.61a74.54,74.54,0,0,0-1.12,18.11A7.53,7.53,0,0,0,327,72.64h0c.27.21.57.44.89.67a15.84,15.84,0,0,0,1.79,1,12.35,12.35,0,0,0,1.7.72,13.7,13.7,0,0,0,4.92.44,21.17,21.17,0,0,0,2.86,3.62l.71,0a21.63,21.63,0,0,0,1.7,2.37s.05,0,.05,0l.71.58.76.59.72.53a49,49,0,0,0,14.35,8,8.65,8.65,0,0,0,.18,2.28h0c.4.18.79.35,1.16.49l1.88.67a2.67,2.67,0,0,0,.36.14A7.82,7.82,0,0,0,362,97c0,.19.09.37.13.54a8,8,0,0,0,2.77.58A7.3,7.3,0,0,0,368.75,97a5.87,5.87,0,0,0,1.12-2.55,5.21,5.21,0,0,0,6,.63,28.2,28.2,0,0,0,7.87-11.94Q373,66.43,363.34,51.85a181.7,181.7,0,0,0-17.21-22.36,30.1,30.1,0,0,0-2.68-4.69,39.58,39.58,0,0,0-10.69-5.23,34.69,34.69,0,0,1,9.93,9.48l-9.17-1.34v-.09a38.08,38.08,0,0,1-5.77-6.57c.18,2.34,1.29,5.19,3.31,8.53a45.79,45.79,0,0,0,2.77,4.16l-.31.23c0-.09-.21-.51-.53-1.26l-.23-.18a8,8,0,0,0-10.55,0L322,32.4a26.77,26.77,0,0,1-4.92,3.22q-1.35.63-8.27,7.91A412.8,412.8,0,0,0,284,92l-.13-.09q11.42-28,21.59-44.71l-2.23,2.46q-12,13.1-30.76,35.77m106.31-3.45a2.3,2.3,0,0,1,.4.18l.27.23.22.58v.45a1.94,1.94,0,0,1-.22.76l-.49.44-1.08.58a2.7,2.7,0,0,1-1,.32l-.54-.32c-.18-.18-.1-.62.22-1.34a4.53,4.53,0,0,1,.85-1.47l.14-.76.67.22c.06,0,.1,0,.13,0s.2,0,.23,0l.22.13m-74.88,32.15a34.67,34.67,0,0,1,4.47,10.37,29.68,29.68,0,0,1,.85,8.14,33.61,33.61,0,0,1-2.78,11.22,73.73,73.73,0,0,0,.68-7.51,71.32,71.32,0,0,0-1-13.1,73.56,73.56,0,0,0-2.23-9.12m-71.8-5v.85q-30.13,1.88-64.87-17A272.33,272.33,0,0,0,232.13,109Z"/></g><g id="Layer1_5_MEMBER_2_MEMBER_0_MEMBER_0_MEMBER_9_FILL" data-name="Layer1 5 MEMBER 2 MEMBER 0 MEMBER 0 MEMBER 9 FILL"><path class="cls-10" d="M148,86.38l-.27-.09q-13.59-1.38-25.57,7.38A114,114,0,0,1,148,86.38m84.54,23.38v-.85a271.83,271.83,0,0,1-64.87-16.13q34.74,18.85,64.87,17M247.16,93a15.65,15.65,0,0,0-6.17,7.69,76.16,76.16,0,0,1,7.2-6,53.64,53.64,0,0,1,12.74-7.06q-8.58,1.69-13.77,5.41m61.61,31.34A34.34,34.34,0,0,0,304.29,114a67.86,67.86,0,0,1,3.22,22.21,73.59,73.59,0,0,1-.67,7.52,33.35,33.35,0,0,0,2.77-11.23,29.65,29.65,0,0,0-.84-8.13m-24.5-32.59.13.09A398.59,398.59,0,0,1,315.47,33.5Q301.2,50.21,284.27,91.75Z"/></g><g id="Layer1_5_MEMBER_3_MEMBER_0_MEMBER_0_MEMBER_1_FILL" data-name="Layer1 5 MEMBER 3 MEMBER 0 MEMBER 0 MEMBER 1 FILL"><path class="cls-15" d="M314.22,24.24l-4.83,2.59a433.14,433.14,0,0,0,50.79,54.1,68.27,68.27,0,0,0-5.73,9l2.82,1.92q3.84-5.28,6.71-8.76h-.36a2.67,2.67,0,0,1-2-1A2.89,2.89,0,0,1,360.8,80a2.66,2.66,0,0,1,.94-2,3,3,0,0,1,1.3-.71,2.44,2.44,0,0,1,.8-.09,2.78,2.78,0,0,1,2,.89,3,3,0,0,1,.81,1.79,57.4,57.4,0,0,1,9.92-8.85l-2.37-2.86a34.46,34.46,0,0,0-10.46,8.27Q337.61,56.74,314.22,24.24Z"/></g><g id="Layer1_5_MEMBER_2_MEMBER_0_MEMBER_0_MEMBER_6_FILL" data-name="Layer1 5 MEMBER 2 MEMBER 0 MEMBER 0 MEMBER 6 FILL"><path class="cls-16" d="M249.71,84.59a24.28,24.28,0,0,1-8.58-3q-.13,3.21,4.47,5.1.84-.49,4.11-2.11m65.72-59.37a8.24,8.24,0,0,1,4.06-1.87l.23-.14A52.83,52.83,0,0,1,298,16.1q1,3.45,9.66,9-13.77-4.92-18.6-2,9.88,5.19,10.86,10.15-6-3.57-18.19-6.35,12.38,6.5,16,13.06-25.08,4.38-33.4-5.68,3.36,11.58,16.54,16.41Q274,50.94,267,46.15q1.2,7,12.16,8.85-11.85,1.88-18.87,9.7a40,40,0,0,1,17.3-4.92q-7,6.21-27,12.39,5.86,1.11,17.57-.54-13.55,6-18.33,3.49-3.79-2.87-4.47-8.94-2.69,4.29-.53,7.68c1.46,2.21,2.57,3.4,3.35,3.58.42.09,1.19.28,2.32.58q.94.41,9.75,1.08-7.47,1.25-17.66-.76,2.91,2.49,11,4.38Q259.73,80,265,78l.32-.18.35.31q18.74-22.66,30.76-35.76t13.86-14a27.27,27.27,0,0,0,4.92-3.21Z"/></g><path class="cls-17" d="M211.64,114.25a.69.69,0,0,1-.2,0l-.44-.13a.68.68,0,0,1-.45-.83.67.67,0,0,1,.83-.44l.45.13a.66.66,0,0,1,.44.83A.65.65,0,0,1,211.64,114.25Z"/><path class="cls-18" d="M279.32,160.37s18.25,7.68,19.21-23.05-2.88-35.54-2.88-35.54,7.68,17.29-8.65,33.62S279.32,160.37,279.32,160.37Z"/><path class="cls-19" d="M135.24,110.86s23-12.56,30.29,18.63,3.12,37.1,3.12,37.1,6.91-19.66-18.2-32.16S135.24,110.86,135.24,110.86Z"/><g id="Layer1_5_MEMBER_4_MEMBER_0_MEMBER_0_MEMBER_0_FILL" data-name="Layer1 5 MEMBER 4 MEMBER 0 MEMBER 0 MEMBER 0 FILL"><path class="cls-20" d="M246,86.29q-16.14,8.1-29.28,5.59l-42.38-4.16q-19.75,28.35-8.49,45.29,14,11,66.43,17.39-3-1.43-.58-24.1A114,114,0,0,1,246,86.29Z"/></g><g id="Layer1_5_MEMBER_5_FILL" data-name="Layer1 5 MEMBER 5 FILL"><path class="cls-21" d="M227.46,87.7q-12.09-.9-16.35,1.79,5.1,47-17.49,87.29l14.64,3.5Q234.56,140.73,227.46,87.7Z"/></g><g id="Layer1_5_MEMBER_8_MEMBER_0_MEMBER_0_MEMBER_0_FILL" data-name="Layer1 5 MEMBER 8 MEMBER 0 MEMBER 0 MEMBER 0 FILL"><path class="cls-22" d="M227.3,143.11a4,4,0,0,0-.81-4.15l-8.36-6.58-.58-.24a2.16,2.16,0,0,0-1.2-.09c-.75.19-1.42.93-2,2.24a25.8,25.8,0,0,0-.8,2.75l.71,12.6c.27,1.12,1,1.49,2.19,1.12q5.59,2.94,10.87-7.65m-11,5.41q-1.48-9.15-.59-11.8l1.79-1.4,7.92,7.09A23.55,23.55,0,0,1,216.35,148.52Z"/></g><g id="Layer1_5_MEMBER_8_MEMBER_0_MEMBER_0_MEMBER_1_FILL" data-name="Layer1 5 MEMBER 8 MEMBER 0 MEMBER 0 MEMBER 1 FILL"><path class="cls-5" d="M210.85,92.57l-2.6,1.4,6.08,40.32c.6-1.31,1.27-2,2-2.24Z"/></g><path class="cls-23" d="M246.56,21.17s7.69,9.32,9,14.34l1.33,5L250,42.83a35.73,35.73,0,0,0-5.86-13.44l-4.5-5.91Z"/><path class="cls-24" d="M212.58,85.75s-13.87,15.92-16.93,25-5.22,15.46-7.42,18.38-3.4,8.39-3,10,3.25,3.16,8.39,3.72,7.72,1.81,17,.07,9.87-4.32,8.26-4.62-10.63-3.36-12.91-6.21-3-5.09.19-8.66,12.58-15.9,16.35-21.09a74.16,74.16,0,0,0,6.86-12.6s-6.13-2.47-10-3.7A11.52,11.52,0,0,0,212.58,85.75Z"/><path class="cls-25" d="M178.46,34.66s-12,11.4-13.18,18.48.84,13.13,5.7,16.26,24.19,10.21,30.32,12.36,11.28,4,11.28,4,1.9-1.63,6.73.22,10,3.7,10,3.7a15.21,15.21,0,0,0,.78-11.87c-2.34-6.38-7.85-9.82-9.8-12s-7.8-6.61-15.55-10.66l-12-6.23s4.47-1.67-2-6.06S178.46,34.66,178.46,34.66Z"/><path class="cls-26" d="M225.57,84.18c-4.84-1.85-6.74-.22-6.74-.22s-5.15-1.85-11.28-4-25.46-9.23-30.32-12.36-6.87-9.19-5.69-16.26c.76-4.57,6-10.94,9.68-14.88-1.7-1.12-2.76-1.8-2.76-1.8s-12,11.4-13.18,18.48.84,13.13,5.7,16.26,24.19,10.21,30.32,12.36,11.28,4,11.28,4,1.9-1.63,6.73.22,10,3.7,10,3.7a14.33,14.33,0,0,0,1.28-3.61C229,85.49,227.28,84.83,225.57,84.18Z"/><path class="cls-5" d="M190.78,132.81c2.34-3,4.62-9.63,7.89-18.92s18-25.66,18-25.66a12.56,12.56,0,0,1,7.16.22c1.56.47,3.46,1.13,5.22,1.77l.24-.55s-6.13-2.47-10-3.7a11.52,11.52,0,0,0-6.73-.22s-13.87,15.92-16.93,25-5.22,15.46-7.42,18.38-3.4,8.39-3,10c.17.8,1,1.58,2.36,2.23A19.47,19.47,0,0,1,190.78,132.81Z"/><path class="cls-5" d="M218.82,138.23a44.85,44.85,0,0,1-10.62-4.36,12.72,12.72,0,0,0,1.37,1.95c1.4,1.69,5.17,3.44,8.44,4.69C220,139.38,219.78,138.41,218.82,138.23Z"/><path class="cls-27" d="M255.05,23.48c.33-.71,5.08-.62,5.82.28a6.35,6.35,0,0,1,.73,2.29,5.81,5.81,0,0,1-.18,2.14c-.39.47-1.15,1.72-1.84,1.86a3.72,3.72,0,0,1-2.6-.44c-1.64-.6-2.38-5.13-1.93-6.13Z"/><path class="cls-28" d="M272.2,35.29a4.35,4.35,0,0,0,1.18-1.16c-.15,0-.18-.12-.33-.12s-2.24.76-2.95.88a4.82,4.82,0,0,1-1.46,0,3,3,0,0,1,.47.4,2.4,2.4,0,0,0,2.67,1.84c1.35.42,2.11-.3,1.94-1.87C273.24,35.08,272.75,35.61,272.2,35.29Z"/><path class="cls-29" d="M260.74,22a8.1,8.1,0,0,1-1.61-2.33.45.45,0,0,1,0-.18c-.72-.25-1.23.19-1.69,1.23.3.4-2,2.24-1.54,2.39.13,0,.51,1.3.5,1.18-.06-.68.75-.93,2-1.08a3,3,0,0,1,2.07.77c.68.57.9,1.3.91,2.75,0,.29.39-1,.71-1.76A4.85,4.85,0,0,0,260.74,22Z"/><path class="cls-30" d="M277.49,25.33c-4.49-2-9.23-3.21-13.76-5.08-.73-.17-1.4-.74-2.21-.29-.18.27-.26.64-.48.72a12.92,12.92,0,0,1,1.4,1.73,5.62,5.62,0,0,1,.72,3.31.52.52,0,0,1-.3.46.79.79,0,0,0,.22.41,15.43,15.43,0,0,0,.91,3.14,26.4,26.4,0,0,0,3,3.76,3.29,3.29,0,0,0,2.21,1.19c.24,0,4.25-.7,4.32-.77.82-.89,3.28-4.37,3.17-5-.16-1-3.35,1.42-3.14.45.25-.66-.11-1.07-.56-1.45-.1-.11-.25-.16-.26-.32a1,1,0,0,0,.3.32,2.61,2.61,0,0,0,3.69-.42c.3-.07,1.57,1,1.86-1.06C278.36,25.66,278.07,25.58,277.49,25.33Z"/><path class="cls-31" d="M266.4,20.69c3.58,1.14,7.05,2.61,10.54,4A3.78,3.78,0,0,1,279,26.4l-.12.06c-3.59-1.69-7.37-2.82-11.07-4.18-2.23-.82-4-1.55-6.28-2.24l-1.27-.61c-.35-.13-.42-.37-.18-.65.41-.47.52-.13,1,.29,1.8.4,3.61,1.07,5.33,1.62Z"/><path class="cls-32" d="M280.19,25a12.67,12.67,0,0,1-4-1.63c-3.79-1.94-8.31-3.29-12.31-4.7-.76-.27-1,.32-1.41.63-.72.4-3.63-1.2-3.92-1.74a1.8,1.8,0,0,1,.1-1.42c.28-.31,3.25.73,3.63.75a17.53,17.53,0,0,1,4.12,1.55c3.37.53,6.42,2.05,9.53,3.35A22.87,22.87,0,0,1,280.36,24l.15.81a.26.26,0,0,1-.32.14Z"/><path class="cls-33" d="M261.06,20.52c-.07.54.9.82.28,1.11s-.86-.36-1.18-.9c-1.35-2.3-3.17,1.38-4,2.27a7.18,7.18,0,0,1-1.85,1.13,4.41,4.41,0,0,1-3.64,0,48.55,48.55,0,0,0-4.47-2.29,2.84,2.84,0,0,1-1.53-1.43,3.5,3.5,0,0,1-.22-2.51c1.41-.1,5.21,1.92,6.25,1.84,1.69-.13,3.28-.77,5-.76.07-.51-.37-.63-.47-1a.48.48,0,0,1,.11-.47c1.85-.24,3.3,1.07,5,1.36.51.25.74.72.77,1.57Z"/><path class="cls-29" d="M253.8,31.67c-.52-.58-2.34-2.21-2.48-3,.6,0,.73-1,.67-2-.08-1.34-.1-1.86-1.13-2.64-.18-.13-4.07-3.05-1.2-1.62,1.42.71,3.71,1.72,5.24.92.67-.14,1.47-.95,1.54.19.12,1.79-.63,5.56,2.42,6.29.46.11,1.12-.33,1.67-.86.18-.17.16-.51.31-.69s.51-.24.6-.41c0,.23.84,2.06.5,2.41-.85.89-3.42.56-3.31.69-1.77,1.37-2.81,1.62-4.76.36,0,.15,0,.28-.07.36Z"/><path class="cls-34" d="M277.63,27.68c-.54,1-2.06,4.28-3.61,5.47a4.06,4.06,0,0,1-.77-4.1c.2-.52-.28-.71-.49-1s0-.45.32-.51c1,.65-3.08-2.16-2.27-2.47.07,0,6.5,1.87,6.82,2.65Z"/><path class="cls-35" d="M273.53,33.92a2.4,2.4,0,0,0,0,.52,7.3,7.3,0,0,0,.16.87c-.78,1.22-2.1.34-3.19,0l.34-.08c.71-.16.56,0,1.44-.69a9.31,9.31,0,0,1,.88-.63c.05,0,.34,0,.34,0Z"/><path class="cls-28" d="M266.68,37.05c.42-.8,0-4.2.64-3.55a4.08,4.08,0,0,0,2.28,1.55c.27,1.27,1.18,1.66,2.18,2.13a3.64,3.64,0,0,0-.57,1.13,2.42,2.42,0,0,1-.29.7c-1,1.07-1.36.24-2.07.48,1.09,0,1.23.93.31,1.6-.69.51-1.05.31-1.62,1.17a3.87,3.87,0,0,1-.4.53,2.76,2.76,0,0,1-1.5.93c-.7.09-2.86-.71-2.79-1.35,1.32-.72,1.56-1.95,2.09-2.95-.06-.15-.12-.31-.17-.47.33-1,1.14-1.41,1.91-1.9Z"/><path class="cls-36" d="M256,39.1c.64-.84.15-4.31-.5-5.19-.68-.68-1.19-1.51-1.81-2.24a.24.24,0,0,1-.18-.17c0-.61-.3-1.43,1.26-.53a2.8,2.8,0,0,0,3.62-.3c.45-.27,3.34-.92,3.4-3.51,0-1.7,2.36-1.67,2.4.16,0,.79.11,1.58.16,2.38s-.29,1.2-.56,1.77a14.33,14.33,0,0,0-1.62,2.82c-.47,1-1.26,1.86-1.72,2.89a1.56,1.56,0,0,0,.07,1.32,11.85,11.85,0,0,0,1.52,2c.18.26-.4.8-1.47,1.07-1.31.32-4.35-1-4.57-2.47Z"/><path class="cls-35" d="M261.28,34.11a10.91,10.91,0,0,0,1.2-1.42c.43-.57.8-1.09,1-1.43,1.24-1.18,1.76-1.16,2.54.34a20.42,20.42,0,0,0,1.31,1.81,9.58,9.58,0,0,1,.84,1.57c.22.67.5,1.54.28,1.9A44.54,44.54,0,0,1,265.9,41a4.18,4.18,0,0,1-2.53,1.52c-.58.41-2.59-1.31-2.61-1.3-1.06-.72-1.12-3.65-.77-5.39.16-.84.71-1.14,1.29-1.67Z"/><path class="cls-27" d="M270,34.53a28.33,28.33,0,0,1,3.52-.62,36.35,36.35,0,0,1-4,1.21,2,2,0,0,1-.76-.06,1.5,1.5,0,0,1-.81-.34c-.29-.3-.67-.67-.92-1-1.19-1.44-2.72-3.14-3.5-2.49.1-.18.56-1.12,1-1.82s.84.31.84.31a30.41,30.41,0,0,0,1.52,2.78,7.37,7.37,0,0,0,1.2,1.68,2.4,2.4,0,0,0,2,.32Z"/><path class="cls-37" d="M276.13,28.8c-.72,1.67-1.84,3.4-3.52,4-1.24.47-2.92.52-3.43,0a9.21,9.21,0,0,1-2.07-2.76c-.33-.68.58-.71,1.41-.83a2.31,2.31,0,0,0,1.6-2.89c-.34-1.18.92-.7,1.61-.46a29.32,29.32,0,0,1,3.88,1.58,1,1,0,0,1,.52,1.31Z"/><path class="cls-20" d="M258.35,17.87c-.4-.59-6-1.62-6.61-1.72-3-.45-4.37-.28-7.19-.77a10.41,10.41,0,0,0-.32,3.54l.06.28c4.15,1.91,9.15.35,13.93-.09C257.57,18.66,259,18.33,258.35,17.87Z"/><path class="cls-20" d="M263.87,17.86c2.57.79,6.12,2,6.81,2.29,3.26,1.24,6.53,2.53,9.64,4a6.19,6.19,0,0,0,.54-2.18h0c.84-2.1.46-5.63,0-7.87-1.06-5.1-3.85-8.63-9-11.44C269.92,1.56,266.6,0,264.2,0h0l.05,0a21.26,21.26,0,0,0-4.85.45h0c-2.47.37-4.47,1.78-6.53,3.08l0,.2c.8,1.91,2.2,6,3,8.21a18.32,18.32,0,0,0,1.35,2.65c.72,1,.36,1.53,1.46,1.87s3.94,1.07,5,1.37A.82.82,0,0,0,263.87,17.86Z"/><path class="cls-20" d="M283.06,26c-1.18-.49-2-.1-3-1.22-1.13-.53-2.27-1-3.4-1.56a68.63,68.63,0,0,0-12.42-4.81c-1-.24-2.05-.26-2.21,1,.15.6,1,.81,1.49.89a93.1,93.1,0,0,1,9.18,3.19c2.15.82,4.47,1.38,6.31,3a19.61,19.61,0,0,0,2.79.89c1.2.14,1.55-.1,1.62-.41A1,1,0,0,0,283.06,26Z"/><path class="cls-20" d="M250.82,15.64a44.55,44.55,0,0,0,5.6,1.08c-.64-1.15-2.26-3.95-3.25-5.68a3,3,0,0,1-.1-.67C253,9,252,8.08,251.3,7.05c-.29-.34-.05-1.42-.49-1.55a52.64,52.64,0,0,0-4.52,5.87A16.93,16.93,0,0,0,245,13.93c1.42,1.34,3.25,1.43,5,1.78A2.65,2.65,0,0,1,250.82,15.64Z"/><path class="cls-27" d="M252.28,30c2,1.49,2.73,3,3.47,3.57-.32.72.23,2.07-1.3,1.9a11.57,11.57,0,0,0-.63-2.14c-.61-1.44-1.54-3.07-1.54-3.33Z"/><path class="cls-38" d="M256.07,39.32a11.28,11.28,0,0,1-1.7-4.68c.53-.47,1.15-.7,1.38-1,.8.76,1.68,4.84.32,5.72Z"/><path class="cls-32" d="M245.15,13.93c4.13.85,7.52,1.21,11.41,2.35.45.7,1.4,1.78.85,1.64-1.38-.38-9.49-1.94-12.75-2.45-.75-.12.06-1.62.49-1.54Z"/><path class="cls-39" d="M253,3.37c.09,0,.91,3,1.1,3.41-1.43-.38-1.47.67-2.52,1.25a6.92,6.92,0,0,1-.92-2.44A6.16,6.16,0,0,1,253,3.37Z"/><path class="cls-40" d="M256.24,12c-.83.19-1.21-1-1.37,1a8.91,8.91,0,0,0,.1,1.26,41,41,0,0,1-3.73-6.94c.42-.57,1.85-2.16,2.53-1.58A35.92,35.92,0,0,0,256.24,12Z"/><path class="cls-41" d="M265.14,23.57a2.32,2.32,0,0,1-2.83.35,41.47,41.47,0,0,1-8.51-11.45c-.39-.7.95-1.16,1.87-1.55a46.4,46.4,0,0,0,3.11,5.25l.51.71a43.27,43.27,0,0,0,4.68,5.6c.52.5,1.22,1,1.17,1.09Z"/><path class="cls-42" d="M251.88,25.05a12.37,12.37,0,0,1,.31,2.53,14.35,14.35,0,0,0,1.58,3.72c.36.68-.64-.17-.79-.1s-4.86-6.65-6.77-9.29c-.21-.28.39-.25,1.34.16,1.59.68,4,2.16,4.33,3Z"/><path class="cls-43" d="M267.39,28.26a2.24,2.24,0,0,1-.95-4.37c2.45-.72,4,3.92.95,4.37Z"/><path class="cls-44" d="M267.25,27.29c-1.56.07-2.12-1.06-1.28-1.82.39-.36,1.84-.75,2.23,0a1.18,1.18,0,0,1-.95,1.79Z"/><path class="cls-27" d="M259.92,39.39a4.48,4.48,0,0,0,1.22,1.87,11.91,11.91,0,0,0,2.07,1.19c1.86.88,2.5.95,3.82.46a1.54,1.54,0,0,1-2.16.74,35.37,35.37,0,0,1-4.31-2.11c-.72-.59-.64-1.1-.64-2.15Z"/><path class="cls-29" d="M264.05,24c.53,0,1,.11,1,.37s-.68.56-.94.88-.32,2-.2,3.62c.05.53-3.52.37-3.21-.13.43-.67.62-4.39.14-4.86s-.91-.94-1.32-1.39a43.34,43.34,0,0,1-6.31-9.21.42.42,0,0,1-.06-.14,38.05,38.05,0,0,1-2.36-4.53,8.88,8.88,0,0,1-.74-2.2,6.47,6.47,0,0,1,.58-.79,9,9,0,0,0,.72,2.05,38.05,38.05,0,0,0,2.36,4.53.47.47,0,0,0,.06.15,42.57,42.57,0,0,0,7.13,10.08c1.74,1.81,1,1.48,3.13,1.57Z"/><path class="cls-45" d="M269.69,33.11a1.22,1.22,0,0,1-.51-.26,9.21,9.21,0,0,1-2.07-2.76c-.33-.68.58-.71,1.41-.83a2.31,2.31,0,0,0,1.6-2.89c-.41-1.43,2.85.34,3.32.65.76.5,1.05,1.17.44,2.31A7.07,7.07,0,0,1,270.16,33l-.47.16Z"/><path class="cls-35" d="M257.18,24.07a1.79,1.79,0,0,1,1.68-.46c.82.16,2.23.9,2.35,1.76s0,2.85-.64,3.54c-.1.11-.14.16-.5.17s-.73,0-1.15-.81c-.18-.34-.72-.35-1-.77-.67-1.08-1.1-2.7-.76-3.43Z"/><path class="cls-46" d="M273.72,35.31a7.3,7.3,0,0,1-.16-.87,2.4,2.4,0,0,1,0-.52s0,0,0,0a28.33,28.33,0,0,0-3.52.62,2.4,2.4,0,0,1-2-.32,4.68,4.68,0,0,1-.52-.59.88.88,0,0,0-.14-.2c-.24-.35-.41-.67-.54-.89a30.41,30.41,0,0,1-1.52-2.78s-.53-.86-.84-.31-.86,1.64-1,1.82h0c-.2.34-.57.86-1,1.43a10.91,10.91,0,0,1-1.2,1.42c-.58.53-1.13.83-1.29,1.67a10.67,10.67,0,0,0-.07,3.62h0c0,1-.08,1.56.64,2.15A27.57,27.57,0,0,0,263.29,43a5.34,5.34,0,0,0,1.39.62l.19.07a1.54,1.54,0,0,0,2.16-.74h0l.11-.12a3.87,3.87,0,0,0,.4-.53c.57-.86.93-.66,1.62-1.17.92-.67.78-1.57-.31-1.6.71-.24,1.06.59,2.07-.48a2.42,2.42,0,0,0,.29-.7,3.64,3.64,0,0,1,.57-1.13C273.13,37.6,273.89,36.88,273.72,35.31Z"/><path class="cls-46" d="M254.19,31.44a4.63,4.63,0,0,1-.52-.71,6.53,6.53,0,0,1-.35-.7,8.4,8.4,0,0,1-.89-2.33c-.14-.7,0-1.49-.16-2.19a4.17,4.17,0,0,0-.42-.93,4.4,4.4,0,0,0-1.33-1,12.2,12.2,0,0,0-4-1.92.84.84,0,0,1-.24-.06l-.22.09a1.92,1.92,0,0,0,.17.26c1.89,2.69,4.48,6.21,6.2,8.57,1,1.34,2.5,6.37,3,7.5a4.84,4.84,0,0,0,.89,1.69,1.11,1.11,0,0,1,.6-.11,8.13,8.13,0,0,0,.21-1.31,16.68,16.68,0,0,0-.36-3.25C256,33.78,255,32.64,254.19,31.44Z"/><path class="cls-46" d="M261.7,25a1,1,0,0,1-.34-.15,12.41,12.41,0,0,0-1.78-1.47,3.93,3.93,0,0,0-3.19.28h0a1,1,0,0,1,0,.24,10,10,0,0,0,0,3.89,1.5,1.5,0,0,1,0,.3c.14.17.29.33.45.51a6.81,6.81,0,0,1,.92,1.25l.23.18a2.47,2.47,0,0,0,.54.19c1.16.24,1.7-.48,2.5-1.16a1.43,1.43,0,0,1,.22-.15,6.08,6.08,0,0,0,.65-3.36A2.25,2.25,0,0,0,261.7,25Z"/><path class="cls-47" d="M345.92,44.61l3.4-2.6,3.68,3.3a3.37,3.37,0,0,1,.47,2.33c-2,3.63-3.44,4.15-6.86,2.4-.83-.42-1.55-1-2.33-1.49a9.3,9.3,0,0,1-.81-.59c-1.28-1.73-1.21-2,.76-2.55a3.36,3.36,0,0,0,1.69-.8Z"/><path class="cls-48" d="M351.16,52c-2.06-.15-3.75-1.44-5.7-2-.84-.21-.71-1.34-1.08-2,.55.32,1.09.65,1.65.95,3.7,2,4.36,2.32,7.06-1.35.22,1.87-1.1,3-1.93,4.38Z"/><path class="cls-49" d="M344.46,44.81l.7-.06c.78-.09.63,0,1.27-.5a16.9,16.9,0,0,1,2.38-1.72,6.79,6.79,0,0,1,.93-.1c-.34-1.84-.39-2-1.79-3.14-1-.8-2-.12-1.34,1.07.39.67.15.84.15,1.16,0,1-2.08,2.87-2.39,2.92-1.13.19-1.06.45.09.37Z"/><path class="cls-50" d="M346.13,46.72a3.67,3.67,0,0,1,3-2.71,2,2,0,0,1,1.9.81l-.73-.23a2.56,2.56,0,0,0-2.18.56c-.84.58-1.55,1.36-1.95,1.57Z"/><path class="cls-51" d="M350.15,48.13c.3-.82-.75-2-.2-2.54s1.3-.38,1.17.74a2.12,2.12,0,0,1-1,1.8Z"/><path class="cls-52" d="M155.11,216.65s10.95,5.29,14,7.82a17,17,0,0,1,4,4.21l10.59,1.9s1.6-4.05-5-12.25-24-13-24-13Z"/><path class="cls-52" d="M176.63,248.58l8.78-5.54a130.72,130.72,0,0,1,15,11.4c6.85,6.19,9.55,10.18,9.55,10.18a11.84,11.84,0,0,1-9.24,1.55c-5.41-1.28-13.15-6.82-16.55-8.74S176.63,248.58,176.63,248.58Z"/><path class="cls-11" d="M307.73,147.21s8.32-9.07,8.65-20.48-2.28-26.06-1.63-40.07,3.58-33.23,3.58-33.23,2.17,12.92,5.13,15.63l3,2.7s-4.51,7.08-4.51,28.26,1.31,25.08-4.56,35.51S307.73,147.21,307.73,147.21Z"/><path class="cls-11" d="M357.27,91.88l1.78-3.59a37.69,37.69,0,0,1-11.4-5.86A69,69,0,0,1,337.23,72s-2.94.33-8.15-2A54.35,54.35,0,0,1,322,66.49s4.55,8.07,9.47,8.52l4.92.44a66.82,66.82,0,0,0,7.51,7.69C348,86.66,357.27,91.88,357.27,91.88Z"/><g id="Layer1_5_MEMBER_10_FILL" data-name="Layer1 5 MEMBER 10 FILL"><path class="cls-15" d="M360.61,80.53l-.14-1.86L271.65,82l.19.16a2.2,2.2,0,0,1-1,.87q26.06,0,87.45-2.39.54,0,1.56-.06Z"/><path class="cls-53" d="M360.62,77.45a2.94,2.94,0,0,1,2.14-1.13,3.36,3.36,0,0,1,2.37.84,3,3,0,0,1,1.13,2.21,3.48,3.48,0,0,1-.84,2.36,3.26,3.26,0,0,1-2.22,1,3.37,3.37,0,0,1-2.35-.66,6.39,6.39,0,0,1-1-1.49q-1,0-1.56.06a5,5,0,0,0,5.17,3.64,4.84,4.84,0,0,0,3.38-1.65,4.92,4.92,0,0,0,1.23-3.59,5,5,0,0,0-1.71-3.43,5,5,0,0,0-7,.49,5.58,5.58,0,0,0-1.18,2.62l1.8-.08A2.41,2.41,0,0,1,360.62,77.45Z"/></g><path class="cls-54" d="M266.39,82.81s-1.42.24-3,.43c-1.87.24-4,.46-4.43.55-1,.2-1.72-.41-2.69-1.57-.09-1-.52-1.66-1.43-1.76-.36-.19-.9.08-1.07-.6s.39-.66.73-.8c1-.34,1.73-1,3.11.24a2.1,2.1,0,0,0,3.12-.4c.28-.43.8-.23,1.28-.11a4.66,4.66,0,0,0-1.18-.39,2.63,2.63,0,0,1-1.58-1.06h0c-.56-.64-.59-1.39.13-1.11,2.12.83,4.36,1,6.28,2.76a.94.94,0,0,1,.05.49c-.32.53-1,.51-1.32.94a4.47,4.47,0,0,1,2,2.39Z"/><path class="cls-55" d="M258.46,77.81a13.41,13.41,0,0,1-2,.52,1.2,1.2,0,0,1-1.26-.89c.36-.81,1.05-.5,1.67-.19a6.12,6.12,0,0,0,1.62.56Z"/><path class="cls-55" d="M261,78c.18.19.35.38.6.62-1.09.15-2.09-.48-3.09-.82l.82-.47c.56.23,1.11.46,1.67.67Z"/><path class="cls-56" d="M265.6,79.49c.35-.43,1.16-.88.88-1.39-.34-.7-1.24-.9-2-1,0,0,0,0,0,0-.15-.48,0-.63.43-.56.6.09,1.26.5,1.79,0,1.65-1.45,6,2,6.13,2.76s-2.81,1.61-3.12,2.22c-.14.26-1.48.29-2.49-.13-.65-.27-1-1-1.37-1.07-.71-.11-.6-.47-.25-.85Z"/><path class="cls-55" d="M271.08,82c-.08,0-1,.22-2,.39-1.1.21-2.29.42-3.41.55a10.06,10.06,0,0,0-1-1.18c-1.13-1.18-.93-1.88-.43-2.18.93-.55,1.44,0,2,.7s4.76,1.39,4.78,1.72Z"/><path class="cls-57" d="M264.49,77.09c.23.52.12.75-.34.59-.86-.3-1.69-.63-2.92-1.08,1.3-.93,2.3.41,3.25.47,0,0,0,0,0,0Z"/><path class="cls-58" d="M268,83.72a7,7,0,0,1-2.77,2c-1.74.63-3.72-.25-3.86-.21-2.62-.72-4.36-1.9-5.17-3.2-.34-.56-4.13-.12-4.4-.55s-.23-2.81-.67-3c.05-1.55,4.39-.35,5.38-.49.53-.16,1.18-.39,1.65,0,2.92,2.18,6,1.91,9.16,3.13,2.71,1.06.74,3.35.68,2.3Z"/><path class="cls-59" d="M269,82.36c.52,1.29-.88,1.58-1.4,1.58A5,5,0,0,1,265,83c-.85-.61-2.1-2.07-2.56-2.18-1.68-.41-7.65-1.43-9.15-1.51-1-.73.05-4.61,1.21-4.61.89,0,2.09,0,2.94,0,1.27,0,2.17-.21,3.53-.23.54,0,6.81,0,8.53.45a21.94,21.94,0,0,1,2.56.85A14.21,14.21,0,0,1,275,77.29c.13.14.22,3.71.23,3.78-.17.43-.62.2-1.05.34a1.54,1.54,0,0,0-1.46.26c-.59.63-.58,1.86-1.47,1.61-.3-.08-2.82-2.35-2.23-.92Z"/><path class="cls-58" d="M258.06,80.21a21.36,21.36,0,0,0-7.25-.72.71.71,0,0,0-.3-.38c-1.52-2.23-2.83-2-2.79-4.52.11,0,4.1,0,7.34.13.27,0,4.67,5.42,3,5.49Z"/><path class="cls-60" d="M251,82.81a9.6,9.6,0,0,0-2.12.36c-.91.24-1-.52-.92-2,1.92-.06.13-.72,1.24-1.89.3-.07-.82-3.54-.1-4.56a5.59,5.59,0,0,1,1.58-.17A5.32,5.32,0,0,1,252,77.11c.28,1.07.15,4,.27,4a37.08,37.08,0,0,1,5.7.47c.59.42,0,.77,3.12,2.11,2.42,1,4.06,1.51,4.7,1.28.33-.11.6-.8.8-.6a1.53,1.53,0,0,1-.08,1.09,2.71,2.71,0,0,1-.79.47c-.3.06-.71.38-1.12.45-1.05.16-5.91-1-6.75-1.75-.32-.29-.8-1.07-1.07-1.23-1-.59-2.55-.47-3.83-.49-.82,0-1.54-.07-1.94-.06Z"/><path class="cls-61" d="M271.69,87.49a12.45,12.45,0,0,1-3,.71c-2.69.21-2.68-1.2-.13-2,.72-.23,1.89-.69,2.6-.83.41-.08.25.67.57,1.06s.19,1-.05,1Z"/><path class="cls-58" d="M270.71,82.66c0-.07,0-.44.26-.31,1.11.6,1.52-1.85,1.56-1.89.83-.81.61-2.17,1.45-2.31s.87-1.25,1.2-1c.37.73.17,3.07-.13,4.61l-2.24-.1a40.44,40.44,0,0,1-.1,4.92,2.44,2.44,0,0,1-1,1c-.56.14-1-.09-.89-1.66a10.43,10.43,0,0,0-.08-3.25Z"/><path class="cls-60" d="M273.12,78.24c.57.26.92,1.86,1.11,3.49l-1.47-.09a3.53,3.53,0,0,0-.92-1.94c-.84-.78-2.26-1.69-2-2s3,.36,3.28.52Z"/><path class="cls-60" d="M271.24,83.65a13.9,13.9,0,0,1-.45,3.14c-.24.45-2.44.46-2.83.46-.79,0-.11-.48-.06-.74s2-.6,2-.8A4.9,4.9,0,0,0,270,84c-.2-.61-.86-1.11-1.07-1.65-.08-.18-.16-.32-.22-.43s-.3-.22,0-.58a.71.71,0,0,1,1.07-.11,8.17,8.17,0,0,1,1.1,1.14,2.47,2.47,0,0,1,.31,1.29Z"/><path class="cls-62" d="M268.62,88.17a7.21,7.21,0,0,1-2.15.51c-.32.06-1.52-2,.86-2.51.39-.08.34.67.72,1.07a1.29,1.29,0,0,0,.48.25,2.09,2.09,0,0,0,0,.34c0,.09,0,.25.05.34Z"/><path class="cls-62" d="M268.18,83.87a17.73,17.73,0,0,1,.2,2.64c-.36,4.08-1.83.95-1.72-2.28,0-.25.44-.23.88-.31.26,0,.62-.26.64,0Z"/><path class="cls-58" d="M268.9,82.2a7.38,7.38,0,0,1,.35,1.33,15.1,15.1,0,0,1,0,2.69c-.1,1.18-.35,1.81-.61,1.92s-.43-.88-.64-2a17.32,17.32,0,0,1-.45-2.14,10.08,10.08,0,0,0,1.21-.51c.36-.23.05-1.44.15-1.24Z"/><path class="cls-62" d="M263.24,86.41a7.57,7.57,0,0,1,1.58-.2c.25,0,1.05.27,1.32.3,0,0,.34-.67.51-.61s.42.95.32,1.06c-.56.61-.33,1.72-.39,1.73a1.78,1.78,0,0,1-1.08-.06c-1.11-.34-2.66-1.21-2.26-2.22Z"/><path class="cls-63" d="M270.37,87a6.42,6.42,0,0,1-1.27.19,7.52,7.52,0,0,0,.14-1,1.79,1.79,0,0,0,0-.23l.29-.1.18.18a1.7,1.7,0,0,0,.33.42,1.13,1.13,0,0,0,.1.13c.06.14.14.28.21.41Zm-1.19-4.32a1.25,1.25,0,0,1-.21-.37c-.08-.18-.16-.32-.22-.43s-.3-.22,0-.58a.71.71,0,0,1,1.07-.11,7.41,7.41,0,0,1,.91.91,2.24,2.24,0,0,0-.34.11,1.66,1.66,0,0,0-1.22.47Z"/><path class="cls-63" d="M274.23,81.73l-1.47-.09a3.53,3.53,0,0,0-.92-1.94c-.49-.45-1.18-1-1.61-1.34-1.33-1.2,2.46.71,2.48.72a5.51,5.51,0,0,1,1.52,2.65Z"/><path class="cls-62" d="M265.93,84.88c.28-.21.8-.93,1-.75a3.44,3.44,0,0,1-.14,1.68c0,.1-.89.06-1,.08-.3.06-.71.38-1.12.45-1.05.16-5.91-1-6.75-1.75-.32-.29-.8-1.07-1.07-1.23a1.36,1.36,0,0,0-.24-.13c.13,0,2.69,1.19,3.05,1.32a17.88,17.88,0,0,0,4,1c.85,0,1.66.13,2.27-.63Z"/><path class="cls-20" d="M247.33,28.58c2,5.61,3.74,10.28,2,17.56s-5.3,13.68-5.21,17.14.15,5.66,3.35,7.46,5.74,3,5.74,3l-.64,11.35s-11.93,1-17.33-.8-9.6-6-9.69-9.49.27-13.54.27-13.54l-.07-2.52s-3.1,2-5.58,3.3l-2.48,1.33a164.77,164.77,0,0,0-17.27-10.24l-8-3.88s3.41-2,.51-4.42-14.72-9.36-14.72-9.36-1.63-1.85,2.69-5.11,14.8-11.41,32.12-10.93,30.74,2.17,30.74,2.17Z"/><path class="cls-13" d="M346.13,28.49l.87,3.74s9.45,12.38,14.34,19.22a198.07,198.07,0,0,1,10.75,17.94l2.12-1.2S362.31,49.5,357.1,42.33,346.13,28.49,346.13,28.49Z"/><path class="cls-13" d="M376.58,71.05s3.41,6.41,5.2,9.09l1.79,2.69s.37.37-.24,1.39c-.38.62-.33.65-.33.65l-8.19-12.59Z"/><path class="cls-18" d="M241.78,183.15c.72.81,1.12,1.27,1.21,1.38l1.57,1.75a101.74,101.74,0,0,1,7.73,9.83,128.89,128.89,0,0,1,14.49,27.1l1.38,3.57-1.12-.22-5.36,2q-12.87,4.33-23.38,3.57l-2.33-.18-.44-.09c-2.81-.44-4.79-1.46-5.95-3v0a8.67,8.67,0,0,0-7,.49,6,6,0,0,1-4.11,0l.94,1.3a5.65,5.65,0,0,0,2.28,2.14l.18.09a6.09,6.09,0,0,0,4.29,0,8.63,8.63,0,0,1,7-.49v0q1.74,2.37,5.94,3l.45.09,2.32.18q10.51.75,23.39-3.58l5.36-2,1.12.23-1.39-3.58a128.58,128.58,0,0,0-14.48-27.09,103.25,103.25,0,0,0-7.74-9.84l-1.56-1.74c-.09-.12-.49-.58-1.21-1.38l0,0c-.69-.74-1.31-1.4-1.88-2s-1.17-1.14-1.66-1.56"/><path class="cls-18" d="M240.67,151v0q2.6,5.5-1.48,22.58l-1,3.66h-.05l-1.78-.18-.32,1.21c.62,0,1.87.88,3.76,2.77l.94-3.53.09-.13q5-20.13-.09-26.42h-.09"/><path class="cls-13" d="M277.93,219.42l-5.86-7.33a41.7,41.7,0,0,1-6.35-14.55c-3.69-16.38-3.43-20.47-2-23.4s6.51-3,6.51-3a99.75,99.75,0,0,0,1.53,22.07C274,204.05,277.93,219.42,277.93,219.42Z"/><path class="cls-13" d="M306.28,170.55s2.06,1.11,4.78,2.73c3.62,2.17,8.41,5.25,11,7.86,4.56,4.56,5.7,7.49,5.37,11.08a59.42,59.42,0,0,1-2.41,9.86s7-8.74,7.3-13.86c.35-5.45-3.95-8-7.17-9.2S306.28,170.55,306.28,170.55Z"/></g></g></g></svg>