<svg width="17" height="17" viewBox="0 0 17 17" fill="none" xmlns="http://www.w3.org/2000/svg">
<path d="M5.53253 0.549812C5.52605 0.552015 5.51945 0.553181 5.5131 0.555513C2.55247 1.66471 0.329532 4.42768 0.034971 7.75346C-0.414253 12.7224 3.52268 17 8.49096 17C12.1022 17 15.238 14.7058 16.444 11.4865C16.4463 11.4802 16.4475 11.4736 16.4497 11.4671C18.9757 4.69361 12.3315 -1.98569 5.53253 0.549812ZM8.49083 15.057C4.74069 15.057 1.74171 11.8942 1.95311 8.1444C1.95441 8.12018 1.957 8.09621 1.95868 8.07212C2.08679 6.17729 3.03265 4.48208 4.43693 3.37184C3.98654 8.62782 8.38876 13.0116 13.6278 12.5628C12.3998 14.1148 10.5034 15.057 8.49083 15.057ZM14.766 10.3778C14.1611 10.5581 13.5346 10.6509 12.8972 10.6509C9.28643 10.6509 6.34886 7.71331 6.34886 4.10255C6.34886 3.46498 6.4416 2.83855 6.62191 2.23363C11.6156 0.743208 16.2449 5.42237 14.766 10.3778Z" fill="black"/>
</svg>
