<?xml version="1.0" standalone="no"?>
<!DOCTYPE svg PUBLIC "-//W3C//DTD SVG 20010904//EN"
 "http://www.w3.org/TR/2001/REC-SVG-20010904/DTD/svg10.dtd">
<svg version="1.0" xmlns="http://www.w3.org/2000/svg"
 width="319.000000pt" height="319.000000pt" viewBox="0 0 319.000000 319.000000"
 preserveAspectRatio="xMidYMid meet">
<metadata>
Created by potrace 1.14, written by Peter Selinger 2001-2017
</metadata>
<g transform="translate(0.000000,319.000000) scale(0.100000,-0.100000)"
fill="#000000" stroke="none">
<path d="M1459 3186 c-2 -2 -27 -6 -55 -10 -90 -10 -285 -56 -280 -65 2 -3
188 -6 413 -5 l408 0 -47 -20 c-26 -12 -48 -23 -48 -26 0 -3 85 -5 189 -5 104
0 187 3 185 7 -10 15 -253 89 -344 103 -25 4 -54 9 -65 12 -24 6 -351 14 -356
9z"/>
<path d="M947 3049 c-20 -5 -84 -39 -195 -102 -23 -13 -40 -26 -38 -28 2 -2
194 -4 425 -3 232 0 421 -2 421 -5 0 -4 -9 -12 -20 -19 -11 -7 -20 -16 -20
-20 0 -4 232 -7 515 -7 283 0 515 3 515 6 0 4 -35 30 -78 58 l-78 51 -360 0
-359 0 62 32 c34 18 60 35 57 38 -8 7 -819 7 -847 -1z"/>
<path d="M622 2855 c-24 -13 -142 -117 -142 -124 0 -3 193 -6 430 -6 l429 1
-21 -23 c-12 -13 -20 -23 -17 -24 21 -4 1452 -3 1454 2 2 3 -20 29 -49 58
l-54 53 -618 0 -619 1 39 33 c22 19 35 35 30 35 -5 1 -197 3 -426 3 -275 1
-424 -2 -436 -9z"/>
<path d="M405 2655 c-39 -38 -96 -113 -88 -117 4 -2 200 -4 434 -3 l427 1 -15
-22 c-8 -12 -10 -24 -6 -26 7 -3 1733 -2 1756 1 4 0 -11 26 -34 56 l-42 55
-807 -2 -807 -3 28 35 c16 19 29 37 29 40 0 4 -192 6 -427 6 -416 0 -427 -1
-448 -21z"/>
<path d="M265 2466 c-34 -32 -77 -113 -62 -118 6 -2 202 -3 434 -3 400 2 421
1 412 -16 -5 -10 -9 -21 -9 -26 0 -6 1947 -10 1982 -4 4 0 -6 24 -21 53 -19
33 -38 55 -53 58 -12 4 -436 5 -940 5 l-917 -2 18 26 c10 14 21 31 24 37 5 9
-105 12 -419 12 -420 -1 -426 -1 -449 -22z"/>
<path d="M165 2286 c-17 -14 -66 -124 -57 -129 4 -1 199 -2 434 -2 l427 1 -5
-23 c-4 -13 -2 -23 2 -24 24 -2 2130 -4 2136 -2 12 6 -30 98 -49 108 -13 6
-377 10 -1036 9 -559 0 -1017 1 -1017 2 0 1 6 17 14 36 l15 34 -425 0 c-286 0
-430 -3 -439 -10z"/>
<path d="M75 2076 c-7 -17 -16 -46 -20 -63 -3 -18 -7 -36 -8 -39 -1 -4 193 -6
431 -6 l433 0 -3 -26 -3 -27 1128 -1 c620 0 1127 2 1127 4 0 15 -24 99 -31
106 -5 6 -444 9 -1104 9 -1049 0 -1095 0 -1090 17 20 62 59 57 -417 57 l-430
0 -13 -31z"/>
<path d="M31 1897 c-5 -12 -11 -43 -15 -69 l-7 -48 435 0 435 0 -2 -27 -2 -28
1148 0 c632 0 1152 2 1157 5 4 3 5 28 3 57 -4 37 -10 52 -22 55 -9 2 -524 3
-1144 3 l-1128 -1 3 36 3 35 -428 2 -428 2 -8 -22z"/>
<path d="M9 1721 c-1 -3 -2 -32 -3 -64 -1 -44 2 -60 14 -66 8 -4 202 -6 430
-6 l415 1 5 -25 5 -26 1158 0 1157 0 0 56 c0 37 -4 58 -12 61 -7 2 -530 4
-1161 3 l-1148 -1 2 26 c0 14 1 30 0 36 -1 8 -122 11 -431 11 -237 0 -431 -3
-431 -6z"/>
<path d="M5 1473 c3 -36 7 -68 9 -71 3 -2 199 -4 436 -4 241 0 431 -4 431 -9
1 -5 2 -13 3 -18 0 -5 5 -13 9 -18 13 -12 2267 -10 2276 2 5 5 11 31 14 58 6
46 6 47 -21 48 -15 0 -535 2 -1157 2 l-1130 2 -5 35 -5 35 -432 2 -432 3 4
-67z"/>
<path d="M24 1321 c3 -14 8 -43 12 -64 3 -21 14 -41 23 -45 9 -5 204 -8 434
-7 l418 1 12 -25 12 -26 1085 -1 c597 0 1093 3 1102 8 15 7 42 94 33 108 -2 3
-510 5 -1129 5 l-1125 -1 -6 37 -6 37 -435 0 -435 -1 5 -26z"/>
<path d="M66 1153 c-5 -6 31 -114 43 -126 5 -5 202 -8 439 -7 l431 1 7 -25 c3
-13 11 -26 17 -28 18 -6 2055 -4 2060 2 3 3 15 29 26 58 l21 52 -1079 0 -1079
0 -7 29 c-3 16 -12 34 -18 39 -12 10 -851 15 -861 5z"/>
<path d="M136 963 c-4 -5 48 -119 60 -132 2 -3 201 -5 440 -5 435 -1 437 -1
445 -22 4 -12 16 -23 26 -25 10 -2 432 -4 938 -3 l919 0 32 55 c18 30 28 56
24 59 -4 3 -453 5 -998 5 l-989 0 -19 35 -19 35 -427 1 c-235 1 -429 -1 -432
-3z"/>
<path d="M230 773 c0 -5 65 -104 87 -132 1 -2 198 -4 437 -4 415 1 436 0 452
-18 9 -11 14 -22 11 -25 -3 -4 -197 -7 -431 -7 -482 0 -447 9 -352 -87 l55
-54 437 0 438 0 24 -23 25 -23 -44 -1 c-24 0 -218 0 -431 -1 -214 0 -388 -3
-388 -7 1 -11 129 -106 162 -120 26 -10 121 -13 459 -13 l425 1 40 -24 c21
-13 35 -25 29 -25 -5 -1 -198 -2 -428 -2 -230 0 -415 -4 -410 -9 4 -4 67 -34
138 -65 l130 -58 455 -2 c250 -2 464 -4 475 -7 22 -4 197 52 191 62 -3 4 -91
6 -198 6 l-193 -1 -67 34 c-38 19 -68 35 -68 36 0 1 149 2 331 1 249 0 341 3
370 13 31 10 169 97 169 105 0 2 -238 2 -529 2 l-530 -1 -41 36 -41 36 598 -2
c468 -1 605 2 630 12 28 11 113 89 113 104 0 3 -330 5 -732 5 -511 -1 -736 3
-743 10 -5 6 -20 22 -32 36 l-23 25 788 -1 c433 0 795 1 804 3 18 4 104 111
91 113 -4 1 -405 2 -890 3 -485 0 -883 3 -885 6 -3 3 -15 20 -27 38 l-22 32
-430 0 c-236 0 -429 -3 -429 -7z"/>
<path d="M1384 19 c-28 -6 -28 -7 -4 -9 14 -1 95 -4 180 -5 155 -3 230 2 230
14 0 8 -367 8 -406 0z"/>
</g>
</svg>
