<svg width="22" height="22" viewBox="0 0 22 22" fill="none" xmlns="http://www.w3.org/2000/svg">
<path d="M12.0782 1.07833C12.0782 0.482804 11.5954 -4.54799e-07 10.9999 -4.8083e-07C10.4044 -5.06861e-07 9.92156 0.482803 9.92156 1.07833L9.92156 3.22607C8.56215 3.4137 7.31258 3.9497 6.26718 4.74235L4.74659 3.22176C4.32546 2.80064 3.64267 2.80064 3.22169 3.22176C2.80057 3.64288 2.80057 4.32568 3.22169 4.74666L4.74227 6.26725C3.94963 7.3128 3.41363 8.56222 3.226 9.92164L1.07826 9.92164C0.482734 9.92164 -6.91193e-05 10.4044 -6.91454e-05 11C-6.91714e-05 11.5955 0.482734 12.0783 1.07826 12.0783L3.22586 12.0783C3.41349 13.4379 3.94949 14.6873 4.74214 15.7328L3.22169 17.2533C2.80056 17.6744 2.80056 18.3572 3.22169 18.7782C3.64281 19.1993 4.32561 19.1993 4.74659 18.7782L6.26703 17.2577C7.31258 18.0505 8.56201 18.5864 9.92156 18.7741L9.92156 20.9219C9.92156 21.5174 10.4044 22.0002 10.9999 22.0002C11.5954 22.0002 12.0782 21.5174 12.0782 20.9219L12.0782 18.7741C13.4378 18.5865 14.6872 18.0505 15.7328 17.2577L17.2532 18.7783C17.6743 19.1994 18.357 19.1994 18.7781 18.7783C19.1992 18.3572 19.1992 17.6744 18.7781 17.2534L17.2577 15.7328C18.0503 14.6873 18.5863 13.4379 18.7739 12.0784L20.9217 12.0784C21.5172 12.0784 22 11.5956 22 11.0001C22 10.4046 21.5172 9.92178 20.9217 9.92178L18.7739 9.92178C18.5862 8.56237 18.0503 7.31294 17.2577 6.26739L18.7782 4.74695C19.1995 4.32583 19.1994 3.64303 18.7782 3.22205C18.3571 2.80092 17.6743 2.80092 17.2533 3.22205L15.7329 4.74263C14.6873 3.94985 13.4379 3.41399 12.0784 3.22622L12.0784 1.07833L12.0782 1.07833ZM16.6932 11.0004C16.6932 14.1396 14.1391 16.6937 10.9999 16.6937C7.86066 16.6937 5.3066 14.1396 5.3066 11.0004C5.3066 7.86102 7.86066 5.30696 10.9999 5.30696C14.1391 5.30696 16.6932 7.86102 16.6932 11.0004Z" fill="white"/>
</svg>
