<svg xmlns="http://www.w3.org/2000/svg" viewBox="0 0 85.36 85.36"><defs><style>.cls-1{fill:#0001fe;}.cls-2{fill:#fff;}</style></defs><g id="Layer_2" data-name="Layer 2"><g id="Layer_1-2" data-name="Layer 1"><circle class="cls-1" cx="42.68" cy="42.68" r="42.68"/><polygon class="cls-2" points="50.6 23.12 38.66 35.32 38.66 23.13 50.6 23.12"/><polygon class="cls-2" points="35.3 23.12 23.36 35.32 23.36 23.13 35.3 23.12"/><polygon class="cls-2" points="65.91 23.12 53.97 35.32 53.97 23.13 65.91 23.12"/><polygon class="cls-2" points="50.6 38.88 38.66 51.08 38.66 38.88 50.6 38.88"/><polygon class="cls-2" points="35.3 38.88 23.36 51.08 23.36 38.88 35.3 38.88"/><polygon class="cls-2" points="65.91 38.88 53.97 51.08 53.97 38.88 65.91 38.88"/><polygon class="cls-2" points="50.6 54.6 38.66 66.8 38.66 54.61 50.6 54.6"/><polygon class="cls-2" points="35.3 54.6 23.36 66.8 23.36 54.61 35.3 54.6"/><polygon class="cls-2" points="65.91 54.6 53.97 66.8 53.97 54.61 65.91 54.6"/></g></g></svg>