<svg width="921" height="387" viewBox="0 0 921 387" fill="none" xmlns="http://www.w3.org/2000/svg">
<g clip-path="url(#clip0_1_150)">
<path d="M68.3186 239.442C61.7076 237.066 55.9903 232.702 51.9482 226.947C47.9061 221.192 45.7366 214.326 45.7361 207.288L45.7361 181.22C45.7351 176.735 46.6159 172.295 48.3281 168.151C50.0403 164.008 52.5505 160.243 55.7151 157.072C58.8797 153.901 62.6368 151.386 66.7718 149.67C70.9068 147.955 75.3386 147.072 79.814 147.073C84.2895 147.072 88.7213 147.955 92.8562 149.67C96.9912 151.386 100.748 153.901 103.913 157.072C107.078 160.243 109.588 164.008 111.3 168.151C113.012 172.295 113.893 176.735 113.892 181.22L113.892 207.288C113.891 214.326 111.722 221.192 107.68 226.947C103.638 232.702 97.9204 237.066 91.3094 239.442" fill="url(#paint0_linear_1_150)"/>
<path fill-rule="evenodd" clip-rule="evenodd" d="M52.6887 256.997C55.4501 256.997 57.6887 259.235 57.6887 261.997V278.268C60.2588 280.382 63.1048 282.147 66.1539 283.51C70.7187 285.552 75.646 286.653 80.6429 286.748C85.6399 286.844 90.6052 285.931 95.2441 284.065C98.2002 282.876 100.985 281.315 103.535 279.424V261.997C103.535 259.235 105.774 256.997 108.535 256.997C111.296 256.997 113.535 259.235 113.535 261.997V273.82L158.925 286.176C161.59 286.901 163.162 289.649 162.436 292.313C161.711 294.978 158.963 296.55 156.299 295.824L113.46 284.164C109.234 288.078 104.327 291.19 98.9763 293.342C93.0919 295.71 86.7924 296.867 80.4523 296.747C74.1122 296.626 67.8612 295.229 62.071 292.639C57.2062 290.463 52.7502 287.483 48.8865 283.829L4.87049 295.28C2.19802 295.976 -0.532053 294.373 -1.2273 291.7C-1.92255 289.028 -0.3197 286.298 2.35277 285.603L47.6887 273.808V261.997C47.6887 259.235 49.9272 256.997 52.6887 256.997Z" fill="url(#paint1_linear_1_150)"/>
<path d="M96.2967 142.137C105.317 145.38 113.118 151.336 118.633 159.192C124.148 167.047 127.108 176.418 127.109 186.024V221.606C127.11 227.727 125.909 233.788 123.572 239.443C121.236 245.099 117.811 250.237 113.493 254.565C109.175 258.893 104.049 262.326 98.4072 264.668C92.7653 267.01 86.7183 268.215 80.6118 268.213V268.213C74.5053 268.215 68.4584 267.01 62.8165 264.668C57.1746 262.326 52.0482 258.893 47.7302 254.565C43.4123 250.237 39.9874 245.099 37.6512 239.443C35.3149 233.788 34.1132 227.727 34.1145 221.606V186.024C34.1152 176.418 37.0754 167.047 42.5906 159.192C48.1058 151.336 55.9067 145.38 64.927 142.137" stroke="url(#paint2_linear_1_150)" stroke-width="10" stroke-linecap="round" stroke-linejoin="round"/>
<path d="M50 207H111" stroke="#8F37FF" stroke-width="5" stroke-linecap="round" stroke-linejoin="round"/>
<path d="M50 192H111" stroke="#8F37FF" stroke-width="5" stroke-linecap="round" stroke-linejoin="round"/>
<path d="M80.6118 268.213C74.3948 268.222 68.2395 266.976 62.5123 264.552" stroke="#6B01FE" stroke-width="10" stroke-linecap="round" stroke-linejoin="round"/>
<path d="M38.6961 165.813C42.3709 158.195 48.0331 151.715 55.0827 147.06" stroke="#C69CFF" stroke-width="10" stroke-linecap="round" stroke-linejoin="round"/>
<path d="M66.8876 151.239V139.861C66.8903 137.726 67.7384 135.679 69.2456 134.17C70.7528 132.662 72.7959 131.814 74.9261 131.814H86.2769C88.4071 131.814 90.4501 132.662 91.9573 134.17C93.4646 135.679 94.3127 137.726 94.3154 139.861V151.239" stroke="#6B01FE" stroke-width="6" stroke-miterlimit="10" stroke-linecap="round"/>
<path d="M72.7281 140.306C72.7281 139.62 72.9999 138.963 73.4837 138.478C73.9675 137.993 74.6237 137.72 75.3079 137.72H85.8642C86.2025 137.72 86.5375 137.787 86.8499 137.917C87.1623 138.047 87.446 138.238 87.6847 138.478C87.9234 138.719 88.1125 139.004 88.241 139.317C88.3695 139.631 88.435 139.967 88.4336 140.306" stroke="#6B01FE" stroke-width="2.62" stroke-miterlimit="10" stroke-linecap="round"/>
</g>
<path fill-rule="evenodd" clip-rule="evenodd" d="M209.505 247.948C212.266 247.948 214.505 250.186 214.505 252.948V280.182C219.081 284.114 224.213 287.37 229.745 289.839C237.383 293.247 245.628 295.085 253.99 295.245C262.353 295.404 270.662 293.88 278.424 290.765C283.854 288.585 288.94 285.657 293.536 282.076C293.506 281.853 293.49 281.626 293.49 281.395V252.948C293.49 250.186 295.729 247.948 298.49 247.948C301.252 247.948 303.49 250.186 303.49 252.948V274.352C304.102 274.286 304.729 274.332 305.342 274.498L378.001 294.23C380.665 294.954 382.239 297.701 381.515 300.366C380.792 303.031 378.045 304.604 375.38 303.88L305.507 284.905C298.775 291.412 290.843 296.555 282.149 300.045C273.143 303.66 263.502 305.427 253.8 305.243C244.098 305.058 234.532 302.925 225.67 298.971C217.726 295.426 210.493 290.482 204.314 284.383L132.561 303.007C129.888 303.701 127.159 302.096 126.465 299.423C125.772 296.751 127.376 294.021 130.049 293.328L204.505 274.002V252.948C204.505 250.186 206.743 247.948 209.505 247.948Z" fill="url(#paint3_linear_1_150)"/>
<path d="M278.99 62.4011C293.363 67.5568 305.793 77.026 314.581 89.5142C323.369 102.002 328.086 116.9 328.087 132.171V188.736C328.089 198.467 326.174 208.103 322.451 217.093C318.729 226.084 313.271 234.253 306.391 241.133C299.511 248.014 291.343 253.472 282.353 257.195C273.363 260.917 263.728 262.832 253.998 262.83V262.83C244.267 262.832 234.632 260.917 225.642 257.195C216.652 253.472 208.484 248.014 201.604 241.133C194.724 234.253 189.266 226.084 185.544 217.093C181.821 208.103 179.906 198.467 179.908 188.736V132.171C179.909 116.9 184.626 102.002 193.414 89.5142C202.202 77.026 214.632 67.5568 229.005 62.4011" stroke="url(#paint4_linear_1_150)" stroke-width="14" stroke-linecap="round" stroke-linejoin="round"/>
<path d="M278.99 62.4011C293.363 67.5568 305.793 77.026 314.581 89.5142C323.369 102.002 328.086 116.9 328.087 132.171V188.736C328.089 198.467 326.174 208.103 322.451 217.093C318.729 226.084 313.271 234.253 306.391 241.133C299.511 248.014 291.343 253.472 282.353 257.195C273.363 260.917 263.728 262.832 253.998 262.83V262.83C244.267 262.832 234.632 260.917 225.642 257.195C216.652 253.472 208.484 248.014 201.604 241.133C194.724 234.253 189.266 226.084 185.544 217.093C181.821 208.103 179.906 198.467 179.908 188.736V132.171C179.909 116.9 184.626 102.002 193.414 89.5142C202.202 77.026 214.632 67.5568 229.005 62.4011" stroke="url(#paint5_linear_1_150)" stroke-width="10" stroke-linecap="round" stroke-linejoin="round"/>
<path d="M237.758 195.5C228.537 192.201 220.563 186.142 214.925 178.152C209.288 170.162 206.262 160.63 206.261 150.859L206.261 114.667C206.26 108.441 207.488 102.275 209.876 96.5229C212.264 90.7706 215.765 85.5438 220.179 81.1414C224.593 76.7389 229.833 73.2469 235.6 70.8649C241.367 68.483 247.549 67.2577 253.791 67.2591V67.2591C260.033 67.2577 266.214 68.483 271.981 70.865C277.748 73.2469 282.989 76.7389 287.402 81.1414C291.816 85.5438 295.317 90.7706 297.705 96.523C300.093 102.275 301.322 108.441 301.32 114.667L301.32 150.859C301.32 160.63 298.294 170.162 292.656 178.152C287.018 186.142 279.044 192.201 269.824 195.5" fill="url(#paint6_linear_1_150)"/>
<g clip-path="url(#clip1_1_150)">
<path d="M345.648 120.109H162.996V196.667H345.648V120.109Z" stroke="url(#paint7_linear_1_150)" stroke-width="7" stroke-linecap="round" stroke-linejoin="round"/>
<path d="M206.434 120.109H239.946" stroke="#EA00FE" stroke-width="7" stroke-linecap="round" stroke-linejoin="round"/>
<path d="M311.028 196.667H279.889" stroke="#EA00FE" stroke-width="7" stroke-linecap="round" stroke-linejoin="round"/>
<path d="M198.786 176.374V140.34L233.391 174.656V140.34L269.134 175.786V140.34L305.955 176.854V137.879" stroke="white" stroke-width="4" stroke-linecap="round" stroke-linejoin="round"/>
<g filter="url(#filter0_f_1_150)">
<ellipse rx="19.2501" ry="19.6234" transform="matrix(1 0 0 -1 218.365 158.072)" fill="#E30613"/>
</g>
<ellipse rx="11.7175" ry="11.6905" transform="matrix(1 0 0 -1 218.365 158.001)" fill="white" fill-opacity="0.4"/>
<ellipse rx="16.7392" ry="16.7007" transform="matrix(1 0 0 -1 218.365 158.001)" fill="white" fill-opacity="0.2"/>
<ellipse rx="5.85873" ry="5.84526" transform="matrix(1 0 0 -1 218.365 158.001)" fill="white"/>
<g filter="url(#filter1_f_1_150)">
<ellipse rx="17.9055" ry="18.2527" transform="matrix(1 0 0 -1 287.931 158.072)" fill="#E30613"/>
</g>
<ellipse rx="10.899" ry="10.8739" transform="matrix(1 0 0 -1 287.931 158.006)" fill="white" fill-opacity="0.4"/>
<ellipse rx="15.57" ry="15.5342" transform="matrix(1 0 0 -1 287.931 158.006)" fill="white" fill-opacity="0.2"/>
<ellipse rx="5.4495" ry="5.43697" transform="matrix(1 0 0 -1 287.931 158.006)" fill="white"/>
</g>
<path d="M253.998 262.83C244.091 262.843 234.284 260.864 225.158 257.009" stroke="#6B01FE" stroke-width="10" stroke-linecap="round" stroke-linejoin="round"/>
<path d="M187.209 100.04C193.064 87.9296 202.086 77.6285 213.319 70.2283" stroke="#C69CFF" stroke-width="10" stroke-linecap="round" stroke-linejoin="round"/>
<path d="M232.129 76.8714V58.7836C232.134 55.3892 233.485 52.1353 235.887 49.7366C238.288 47.3379 241.544 45.9906 244.938 45.9906H263.024C266.419 45.9906 269.674 47.3379 272.076 49.7366C274.477 52.1353 275.829 55.3892 275.833 58.7836V76.8714" stroke="#6B01FE" stroke-width="10" stroke-miterlimit="10" stroke-linecap="round"/>
<path d="M241.436 59.4906C241.436 58.4004 241.869 57.3547 242.64 56.5838C243.41 55.8129 244.456 55.3798 245.546 55.3798H262.367C262.906 55.3798 263.439 55.4862 263.937 55.693C264.435 55.8998 264.887 56.2028 265.267 56.5848C265.648 56.9667 265.949 57.42 266.154 57.9187C266.359 58.4174 266.463 58.9516 266.461 59.4906" stroke="#6B01FE" stroke-width="2.62" stroke-miterlimit="10" stroke-linecap="round"/>
<g clip-path="url(#clip2_1_150)">
<path fill-rule="evenodd" clip-rule="evenodd" d="M630.994 248.088C633.756 248.088 635.994 250.327 635.994 253.088V280.323C640.571 284.255 645.703 287.51 651.235 289.979C658.873 293.387 667.118 295.226 675.48 295.385C683.842 295.544 692.151 294.02 699.914 290.905C705.344 288.725 710.43 285.797 715.026 282.216C714.996 281.993 714.98 281.766 714.98 281.535V253.088C714.98 250.327 717.219 248.088 719.98 248.088C722.742 248.088 724.98 250.327 724.98 253.088V274.493C725.592 274.426 726.219 274.472 726.832 274.638L799.49 294.37C802.155 295.094 803.729 297.841 803.005 300.506C802.281 303.171 799.534 304.744 796.87 304.021L726.997 285.045C720.265 291.553 712.333 296.696 703.638 300.185C694.633 303.8 684.992 305.567 675.29 305.383C665.588 305.198 656.021 303.066 647.16 299.111C639.216 295.566 631.983 290.622 625.803 284.524L554.051 303.147C551.378 303.841 548.649 302.237 547.955 299.564C547.261 296.891 548.866 294.162 551.539 293.468L625.994 274.143V253.088C625.994 250.327 628.233 248.088 630.994 248.088Z" fill="url(#paint8_linear_1_150)"/>
<path d="M700.48 63.2979C714.853 68.4536 727.283 77.9227 736.071 90.4109C744.859 102.899 749.575 117.797 749.576 133.067V189.633C749.579 199.364 747.664 209 743.941 217.99C740.219 226.981 734.761 235.149 727.881 242.03C721.001 248.911 712.832 254.368 703.843 258.091C694.853 261.814 685.217 263.729 675.487 263.727V263.727C665.757 263.729 656.122 261.814 647.132 258.091C638.142 254.368 629.974 248.911 623.094 242.03C616.213 235.149 610.756 226.981 607.034 217.99C603.311 209 601.396 199.364 601.398 189.633V133.067C601.399 117.797 606.116 102.899 614.904 90.4109C623.692 77.9227 636.122 68.4536 650.495 63.2979" stroke="url(#paint9_linear_1_150)" stroke-width="14" stroke-linecap="round" stroke-linejoin="round"/>
<path d="M700.48 63.2979C714.853 68.4536 727.283 77.9227 736.071 90.4109C744.859 102.899 749.575 117.797 749.576 133.067V189.633C749.579 199.364 747.664 209 743.941 217.99C740.219 226.981 734.761 235.149 727.881 242.03C721.001 248.911 712.832 254.368 703.843 258.091C694.853 261.814 685.217 263.729 675.487 263.727V263.727C665.757 263.729 656.122 261.814 647.132 258.091C638.142 254.368 629.974 248.911 623.094 242.03C616.213 235.149 610.756 226.981 607.034 217.99C603.311 209 601.396 199.364 601.398 189.633V133.067C601.399 117.797 606.116 102.899 614.904 90.4109C623.692 77.9227 636.122 68.4536 650.495 63.2979" stroke="url(#paint10_linear_1_150)" stroke-width="10" stroke-linecap="round" stroke-linejoin="round"/>
<path d="M659.247 194.603C650.027 191.304 642.053 185.245 636.415 177.255C630.777 169.265 627.751 159.733 627.751 149.962L627.751 113.77C627.749 107.544 628.978 101.378 631.366 95.6261C633.754 89.8737 637.255 84.647 641.669 80.2445C646.083 75.842 651.323 72.3501 657.09 69.9681C662.857 67.5861 669.038 66.3608 675.28 66.3622V66.3622C681.523 66.3608 687.704 67.5861 693.471 69.9681C699.238 72.3501 704.478 75.842 708.892 80.2445C713.306 84.647 716.807 89.8737 719.195 95.6261C721.583 101.378 722.812 107.544 722.81 113.77L722.81 149.962C722.809 159.733 719.784 169.265 714.146 177.255C708.508 185.245 700.534 191.304 691.314 194.603" fill="url(#paint11_linear_1_150)"/>
<path d="M697.239 72.658C709.705 77.3281 720.487 85.9055 728.109 97.2176C735.731 108.53 739.822 122.024 739.823 135.857V187.095C739.825 195.91 738.164 204.638 734.935 212.782C731.706 220.926 726.973 228.325 721.006 234.558C715.038 240.791 707.953 245.734 700.156 249.107C692.358 252.479 684.001 254.213 675.562 254.212V254.212C667.123 254.213 658.765 252.479 650.968 249.107C643.171 245.734 636.086 240.791 630.118 234.558C624.151 228.325 619.417 220.926 616.189 212.782C612.96 204.638 611.299 195.91 611.301 187.095V135.857C611.302 122.024 615.393 108.53 623.015 97.2176C630.637 85.9055 641.419 77.3281 653.885 72.658" stroke="url(#paint12_linear_1_150)" stroke-width="2" stroke-linecap="round" stroke-linejoin="round"/>
<g clip-path="url(#clip3_1_150)">
<path d="M647.802 208.018V217.358" stroke="#01FEB2" stroke-width="5" stroke-linecap="round" stroke-linejoin="round"/>
<path d="M662.43 208.018V217.358" stroke="#01FEB2" stroke-width="5" stroke-linecap="round" stroke-linejoin="round"/>
<path d="M677.047 208.018V217.358" stroke="#01FEB2" stroke-width="5" stroke-linecap="round" stroke-linejoin="round"/>
<path d="M691.664 208.018V217.358" stroke="#01FEB2" stroke-width="5" stroke-linecap="round" stroke-linejoin="round"/>
<path d="M706.281 208.018V217.358" stroke="#01FEB2" stroke-width="5" stroke-linecap="round" stroke-linejoin="round"/>
</g>
<path d="M675.487 263.727C665.581 263.74 655.773 261.761 646.647 257.906" stroke="#6B01FE" stroke-width="10" stroke-linecap="round" stroke-linejoin="round"/>
<path d="M608.699 100.937C614.554 88.8263 623.576 78.5252 634.809 71.125" stroke="#C69CFF" stroke-width="10" stroke-linecap="round" stroke-linejoin="round"/>
<path d="M653.619 77.7681V59.6803C653.623 56.2859 654.975 53.032 657.376 50.6333C659.778 48.2346 663.033 46.8873 666.428 46.8873H684.514C687.908 46.8873 691.164 48.2346 693.565 50.6333C695.967 53.032 697.318 56.2859 697.323 59.6803V77.7681" stroke="#6B01FE" stroke-width="10" stroke-miterlimit="10" stroke-linecap="round"/>
<path d="M662.925 60.3874C662.925 59.2971 663.358 58.2515 664.129 57.4805C664.9 56.7096 665.946 56.2765 667.036 56.2765H683.856C684.395 56.2765 684.929 56.3829 685.427 56.5897C685.925 56.7965 686.377 57.0996 686.757 57.4815C687.138 57.8635 687.439 58.3168 687.644 58.8154C687.848 59.3141 687.953 59.8483 687.951 60.3874" stroke="#6B01FE" stroke-width="2.62" stroke-miterlimit="10" stroke-linecap="round"/>
<g filter="url(#filter2_f_1_150)">
<ellipse rx="21.9695" ry="22.3955" transform="matrix(1 0 0 -1 646.297 152.247)" fill="#01FEB2"/>
</g>
<ellipse rx="13.3727" ry="13.342" transform="matrix(1 0 0 -1 646.297 152.165)" fill="white" fill-opacity="0.4"/>
<ellipse rx="19.1039" ry="19.06" transform="matrix(1 0 0 -1 646.297 152.165)" fill="white" fill-opacity="0.2"/>
<ellipse rx="6.68637" ry="6.671" transform="matrix(1 0 0 -1 646.297 152.165)" fill="white"/>
<g filter="url(#filter3_f_1_150)">
<ellipse rx="22.05" ry="22.4775" transform="matrix(1 0 0 -1 708.385 152.247)" fill="#01FEB2"/>
</g>
<ellipse rx="13.4217" ry="13.3909" transform="matrix(1 0 0 -1 708.384 152.165)" fill="white" fill-opacity="0.4"/>
<ellipse rx="19.1739" ry="19.1298" transform="matrix(1 0 0 -1 708.385 152.165)" fill="white" fill-opacity="0.2"/>
<ellipse rx="6.71087" ry="6.69544" transform="matrix(1 0 0 -1 708.385 152.165)" fill="white"/>
<path d="M661.869 44.9815C666.476 44.8394 671.259 44.8394 676.177 44.8394C710.86 44.8394 738.952 47.4594 738.952 50.6685C738.952 53.8775 710.86 56.4976 676.177 56.4976C641.494 56.4976 613.402 53.8978 613.402 50.6685C613.402 48.6374 625.067 46.7689 642.564 45.7533" stroke="url(#paint13_linear_1_150)" stroke-width="4" stroke-linecap="round" stroke-linejoin="round"/>
</g>
<path fill-rule="evenodd" clip-rule="evenodd" d="M412.94 249.622C415.702 249.622 417.94 251.861 417.94 254.622V286.539C423.37 291.252 429.477 295.147 436.068 298.088C445.015 302.081 454.672 304.234 464.467 304.42C474.262 304.606 483.995 302.822 493.087 299.173C499.597 296.56 505.684 293.029 511.167 288.699C511.084 288.339 511.041 287.965 511.041 287.581V254.622C511.041 251.861 513.28 249.622 516.041 249.622C518.803 249.622 521.041 251.861 521.041 254.622V280.386C521.916 280.127 522.86 280.108 523.772 280.355L607.955 303.217C610.62 303.941 612.194 306.688 611.47 309.353C610.746 312.018 607.999 313.591 605.335 312.868L523.942 290.764C516.148 298.381 506.93 304.392 496.812 308.453C486.476 312.601 475.412 314.63 464.277 314.418C453.142 314.206 442.163 311.759 431.993 307.22C422.739 303.091 414.326 297.307 407.164 290.162L323.593 311.853C320.92 312.547 318.191 310.942 317.497 308.27C316.803 305.597 318.408 302.868 321.08 302.174L407.474 279.75C407.629 279.71 407.784 279.678 407.94 279.653V254.622C407.94 251.861 410.179 249.622 412.94 249.622Z" fill="url(#paint14_linear_1_150)"/>
<path d="M493.447 33.8544C510.1 39.8278 524.502 50.7988 534.684 65.2676C544.866 79.7364 550.331 96.9969 550.332 114.69V180.226C550.334 191.501 548.116 202.665 543.803 213.081C539.49 223.497 533.167 232.962 525.195 240.934C517.224 248.906 507.76 255.229 497.344 259.543C486.928 263.856 475.764 266.075 464.491 266.072V266.072C453.217 266.075 442.054 263.856 431.638 259.543C421.222 255.229 411.758 248.906 403.786 240.934C395.815 232.962 389.492 223.497 385.179 213.081C380.866 202.665 378.647 191.501 378.65 180.226V114.69C378.651 96.9969 384.116 79.7364 394.298 65.2676C404.48 50.7988 418.881 39.8278 435.534 33.8544" stroke="url(#paint15_linear_1_150)" stroke-width="14" stroke-linecap="round" stroke-linejoin="round"/>
<path d="M493.447 33.8544C510.1 39.8278 524.502 50.7988 534.684 65.2676C544.866 79.7364 550.331 96.9969 550.332 114.69V180.226C550.334 191.501 548.116 202.665 543.803 213.081C539.49 223.497 533.167 232.962 525.195 240.934C517.224 248.906 507.76 255.229 497.344 259.543C486.928 263.856 475.764 266.075 464.491 266.072V266.072C453.217 266.075 442.054 263.856 431.638 259.543C421.222 255.229 411.758 248.906 403.786 240.934C395.815 232.962 389.492 223.497 385.179 213.081C380.866 202.665 378.647 191.501 378.65 180.226V114.69C378.651 96.9969 384.116 79.7364 394.298 65.2676C404.48 50.7988 418.881 39.8278 435.534 33.8544" stroke="url(#paint16_linear_1_150)" stroke-width="10" stroke-linecap="round" stroke-linejoin="round"/>
<path d="M444.57 215.229C433.088 210.777 423.158 202.6 416.137 191.815C409.117 181.031 405.348 168.166 405.348 154.98L405.348 106.133C405.346 97.7297 406.876 89.4087 409.85 81.645C412.823 73.8813 417.183 66.827 422.68 60.8852C428.176 54.9434 434.701 50.2305 441.883 47.0157C449.065 43.8009 456.762 42.1471 464.536 42.149V42.149C472.309 42.1471 480.006 43.8009 487.188 47.0157C494.37 50.2305 500.895 54.9434 506.392 60.8852C511.888 66.827 516.248 73.8813 519.222 81.645C522.195 89.4087 523.725 97.7297 523.723 106.133L523.723 154.98C523.723 168.167 519.954 181.031 512.934 191.815C505.914 202.6 495.984 210.777 484.501 215.229" fill="url(#paint17_linear_1_150)"/>
<path d="M489.592 52.1909C504.059 57.3859 516.57 66.9272 525.415 79.5105C534.261 92.0938 539.008 107.105 539.009 122.492V179.488C539.012 189.293 537.084 199.003 533.337 208.062C529.59 217.121 524.097 225.352 517.172 232.285C510.247 239.218 502.025 244.717 492.977 248.468C483.928 252.219 474.23 254.149 464.436 254.147V254.147C454.643 254.149 444.945 252.219 435.896 248.468C426.847 244.717 418.626 239.218 411.7 232.285C404.775 225.352 399.282 217.121 395.535 208.062C391.789 199.003 389.861 189.293 389.863 179.488V122.492C389.864 107.105 394.612 92.0938 403.457 79.5105C412.303 66.9272 424.814 57.3859 439.281 52.1909" stroke="url(#paint18_linear_1_150)" stroke-width="2" stroke-linecap="round" stroke-linejoin="round"/>
<path d="M464.491 266.072C453.013 266.087 441.65 263.794 431.076 259.328" stroke="#6B01FE" stroke-width="10" stroke-linecap="round" stroke-linejoin="round"/>
<path d="M387.108 77.4631C393.892 63.4316 404.345 51.4967 417.36 42.9229" stroke="#C69CFF" stroke-width="10" stroke-linecap="round" stroke-linejoin="round"/>
<g clip-path="url(#clip4_1_150)">
<path d="M450.501 294.917C413.551 293.314 385.692 286.126 385.692 277.575C385.692 273.502 391.936 269.76 402.415 266.775" stroke="url(#paint19_linear_1_150)" stroke-width="5" stroke-linecap="round" stroke-linejoin="round"/>
<path d="M530.627 266.885C540.869 269.853 547.057 273.557 547.057 277.575C547.057 285.721 521.937 292.577 487.78 294.641" stroke="url(#paint20_linear_1_150)" stroke-width="5" stroke-linecap="round" stroke-linejoin="round"/>
<path d="M469.506 303.616C473.74 303.616 477.173 300.151 477.173 295.876C477.173 291.601 473.74 288.135 469.506 288.135C465.271 288.135 461.838 291.601 461.838 295.876C461.838 300.151 465.271 303.616 469.506 303.616Z" fill="#B200FE"/>
</g>
<path d="M439.154 50.6196V29.6631C439.159 25.7303 440.725 21.9603 443.507 19.1812C446.29 16.4021 450.061 14.8411 453.994 14.8411H474.949C478.882 14.8411 482.654 16.4021 485.436 19.1812C488.219 21.9603 489.785 25.7303 489.79 29.6631V50.6196" stroke="#6B01FE" stroke-width="10" stroke-miterlimit="10" stroke-linecap="round"/>
<path d="M449.936 30.4822C449.936 29.219 450.438 28.0076 451.331 27.1144C452.224 26.2212 453.436 25.7194 454.699 25.7194H474.187C474.812 25.7194 475.43 25.8427 476.007 26.0823C476.584 26.3219 477.108 26.673 477.548 27.1155C477.989 27.558 478.338 28.0832 478.575 28.661C478.813 29.2387 478.933 29.8576 478.931 30.4822" stroke="#6B01FE" stroke-width="2.62" stroke-miterlimit="10" stroke-linecap="round"/>
<path d="M464.904 181.084C478.418 181.097 491.763 178.083 503.96 172.265C516.158 166.446 526.897 157.97 535.391 147.458C526.894 136.948 516.154 128.471 503.958 122.648C491.762 116.824 478.419 113.802 464.904 113.802C451.389 113.802 438.046 116.824 425.85 122.648C413.654 128.471 402.914 136.948 394.418 147.458C402.908 157.973 413.647 166.451 425.845 172.27C438.043 178.089 451.389 181.101 464.904 181.084V181.084Z" stroke="#6B01FE" stroke-width="10" stroke-miterlimit="10" stroke-linecap="round"/>
<g filter="url(#filter4_f_1_150)">
<ellipse rx="49.798" ry="50.7628" transform="matrix(1 0 0 -1 465.907 147.291)" fill="#B200FE"/>
</g>
<ellipse rx="30.3118" ry="30.2417" transform="matrix(1 0 0 -1 465.907 147.106)" fill="white" fill-opacity="0.4"/>
<ellipse rx="43.3026" ry="43.2024" transform="matrix(1 0 0 -1 465.907 147.106)" fill="white" fill-opacity="0.2"/>
<ellipse rx="15.1559" ry="15.1208" transform="matrix(1 0 0 -1 465.907 147.106)" fill="white"/>
<g clip-path="url(#clip5_1_150)">
<path d="M826.103 239.442C819.492 237.066 813.775 232.702 809.733 226.947C805.691 221.192 803.521 214.326 803.521 207.288L803.521 181.22C803.52 176.735 804.401 172.295 806.113 168.151C807.825 164.008 810.335 160.243 813.5 157.072C816.664 153.901 820.422 151.386 824.557 149.67C828.692 147.955 833.123 147.072 837.599 147.073C842.074 147.072 846.506 147.955 850.641 149.67C854.776 151.386 858.533 153.901 861.698 157.072C864.862 160.243 867.372 164.008 869.085 168.151C870.797 172.295 871.678 176.735 871.677 181.22L871.677 207.288C871.676 214.326 869.507 221.192 865.465 226.947C861.423 232.702 855.705 237.066 849.094 239.442" fill="url(#paint21_linear_1_150)"/>
<path fill-rule="evenodd" clip-rule="evenodd" d="M810.473 256.997C813.235 256.997 815.473 259.235 815.473 261.997V278.268C818.044 280.382 820.89 282.147 823.939 283.51C828.504 285.552 833.431 286.653 838.428 286.748C843.425 286.844 848.39 285.931 853.029 284.065C855.985 282.876 858.77 281.315 861.32 279.424V261.997C861.32 259.235 863.558 256.997 866.32 256.997C869.081 256.997 871.32 259.235 871.32 261.997V273.82L916.71 286.176C919.374 286.901 920.947 289.649 920.221 292.313C919.496 294.978 916.748 296.55 914.084 295.824L871.245 284.164C867.019 288.078 862.111 291.19 856.761 293.342C850.877 295.71 844.577 296.867 838.237 296.747C831.897 296.626 825.646 295.229 819.856 292.639C814.991 290.463 810.535 287.483 806.671 283.829L762.655 295.28C759.983 295.976 757.253 294.373 756.557 291.7C755.862 289.028 757.465 286.298 760.138 285.603L805.473 273.808V261.997C805.473 259.235 807.712 256.997 810.473 256.997Z" fill="url(#paint22_linear_1_150)"/>
<path d="M854.081 142.137C863.102 145.38 870.903 151.336 876.418 159.192C881.933 167.047 884.893 176.418 884.894 186.024V221.606C884.895 227.727 883.694 233.788 881.357 239.443C879.021 245.099 875.596 250.237 871.278 254.565C866.96 258.893 861.834 262.326 856.192 264.668C850.55 267.01 844.503 268.215 838.397 268.213V268.213C832.29 268.215 826.243 267.01 820.601 264.668C814.959 262.326 809.833 258.893 805.515 254.565C801.197 250.237 797.772 245.099 795.436 239.443C793.1 233.788 791.898 227.727 791.899 221.606V186.024C791.9 176.418 794.86 167.047 800.375 159.192C805.891 151.336 813.691 145.38 822.712 142.137" stroke="url(#paint23_linear_1_150)" stroke-width="10" stroke-linecap="round" stroke-linejoin="round"/>
<path d="M811.375 192.064L825.125 205.936" stroke="#B200FE" stroke-width="4" stroke-linecap="round" stroke-linejoin="round"/>
<path d="M825.125 192.064L811.375 205.936" stroke="#B200FE" stroke-width="4" stroke-linecap="round" stroke-linejoin="round"/>
<path d="M852.161 192.064L865.911 205.936" stroke="#B200FE" stroke-width="4" stroke-linecap="round" stroke-linejoin="round"/>
<path d="M865.911 192.064L852.161 205.936" stroke="#B200FE" stroke-width="4" stroke-linecap="round" stroke-linejoin="round"/>
<path d="M838.397 268.213C832.18 268.222 826.024 266.976 820.297 264.552" stroke="#6B01FE" stroke-width="10" stroke-linecap="round" stroke-linejoin="round"/>
<path d="M796.481 165.813C800.156 158.195 805.818 151.715 812.867 147.06" stroke="#C69CFF" stroke-width="10" stroke-linecap="round" stroke-linejoin="round"/>
<path d="M824.672 151.239V139.861C824.675 137.726 825.523 135.679 827.03 134.17C828.538 132.662 830.581 131.814 832.711 131.814H844.062C846.192 131.814 848.235 132.662 849.742 134.17C851.249 135.679 852.097 137.726 852.1 139.861V151.239" stroke="#6B01FE" stroke-width="7" stroke-miterlimit="10" stroke-linecap="round"/>
<path d="M830.513 140.306C830.513 139.62 830.785 138.963 831.269 138.478C831.752 137.993 832.408 137.72 833.093 137.72H843.649C843.987 137.72 844.322 137.787 844.635 137.917C844.947 138.047 845.231 138.238 845.47 138.478C845.708 138.719 845.897 139.004 846.026 139.317C846.154 139.631 846.22 139.967 846.218 140.306" stroke="#6B01FE" stroke-width="2.62" stroke-miterlimit="10" stroke-linecap="round"/>
</g>
<defs>
<filter id="filter0_f_1_150" x="159.115" y="98.4491" width="118.5" height="119.247" filterUnits="userSpaceOnUse" color-interpolation-filters="sRGB">
<feFlood flood-opacity="0" result="BackgroundImageFix"/>
<feBlend mode="normal" in="SourceGraphic" in2="BackgroundImageFix" result="shape"/>
<feGaussianBlur stdDeviation="20" result="effect1_foregroundBlur_1_150"/>
</filter>
<filter id="filter1_f_1_150" x="230.025" y="99.8198" width="115.811" height="116.505" filterUnits="userSpaceOnUse" color-interpolation-filters="sRGB">
<feFlood flood-opacity="0" result="BackgroundImageFix"/>
<feBlend mode="normal" in="SourceGraphic" in2="BackgroundImageFix" result="shape"/>
<feGaussianBlur stdDeviation="20" result="effect1_foregroundBlur_1_150"/>
</filter>
<filter id="filter2_f_1_150" x="584.328" y="89.8511" width="123.939" height="124.791" filterUnits="userSpaceOnUse" color-interpolation-filters="sRGB">
<feFlood flood-opacity="0" result="BackgroundImageFix"/>
<feBlend mode="normal" in="SourceGraphic" in2="BackgroundImageFix" result="shape"/>
<feGaussianBlur stdDeviation="20" result="effect1_foregroundBlur_1_150"/>
</filter>
<filter id="filter3_f_1_150" x="646.335" y="89.7691" width="124.1" height="124.955" filterUnits="userSpaceOnUse" color-interpolation-filters="sRGB">
<feFlood flood-opacity="0" result="BackgroundImageFix"/>
<feBlend mode="normal" in="SourceGraphic" in2="BackgroundImageFix" result="shape"/>
<feGaussianBlur stdDeviation="20" result="effect1_foregroundBlur_1_150"/>
</filter>
<filter id="filter4_f_1_150" x="376.109" y="56.5281" width="179.596" height="181.526" filterUnits="userSpaceOnUse" color-interpolation-filters="sRGB">
<feFlood flood-opacity="0" result="BackgroundImageFix"/>
<feBlend mode="normal" in="SourceGraphic" in2="BackgroundImageFix" result="shape"/>
<feGaussianBlur stdDeviation="20" result="effect1_foregroundBlur_1_150"/>
</filter>
<linearGradient id="paint0_linear_1_150" x1="72.4198" y1="106.379" x2="41.6126" y2="231.625" gradientUnits="userSpaceOnUse">
<stop stop-color="#6B01FE"/>
<stop offset="1" stop-color="#6B01FE" stop-opacity="0"/>
</linearGradient>
<linearGradient id="paint1_linear_1_150" x1="80.6602" y1="264.662" x2="80.6602" y2="299.193" gradientUnits="userSpaceOnUse">
<stop stop-color="#3A0A7D"/>
<stop offset="1" stop-color="#010002"/>
</linearGradient>
<linearGradient id="paint2_linear_1_150" x1="80.6118" y1="142.137" x2="59.8913" y2="315.317" gradientUnits="userSpaceOnUse">
<stop stop-color="#6B01FE"/>
<stop offset="1" stop-color="#040009"/>
</linearGradient>
<linearGradient id="paint3_linear_1_150" x1="254.073" y1="258.997" x2="254.073" y2="308.77" gradientUnits="userSpaceOnUse">
<stop stop-color="#3A0A7D"/>
<stop offset="1" stop-color="#010002"/>
</linearGradient>
<linearGradient id="paint4_linear_1_150" x1="311.185" y1="113.892" x2="119.308" y2="179.462" gradientUnits="userSpaceOnUse">
<stop stop-color="#6B01FE"/>
<stop offset="1" stop-color="#040009"/>
</linearGradient>
<linearGradient id="paint5_linear_1_150" x1="253.998" y1="62.4011" x2="221.131" y2="337.731" gradientUnits="userSpaceOnUse">
<stop stop-color="#6B01FE"/>
<stop offset="1" stop-color="#040009"/>
</linearGradient>
<linearGradient id="paint6_linear_1_150" x1="243.478" y1="10.7615" x2="200.88" y2="184.738" gradientUnits="userSpaceOnUse">
<stop stop-color="#6B01FE"/>
<stop offset="1" stop-color="#6B01FE" stop-opacity="0"/>
</linearGradient>
<linearGradient id="paint7_linear_1_150" x1="332.776" y1="74.6227" x2="214.154" y2="269.925" gradientUnits="userSpaceOnUse">
<stop stop-color="#B200FE"/>
<stop offset="1" stop-color="#B200FE" stop-opacity="0"/>
</linearGradient>
<linearGradient id="paint8_linear_1_150" x1="675.563" y1="268.618" x2="675.563" y2="312.86" gradientUnits="userSpaceOnUse">
<stop stop-color="#3A0A7D"/>
<stop offset="1" stop-opacity="0"/>
</linearGradient>
<linearGradient id="paint9_linear_1_150" x1="749.714" y1="347.505" x2="523.238" y2="279.472" gradientUnits="userSpaceOnUse">
<stop stop-color="#6B01FE"/>
<stop offset="1" stop-color="#040009"/>
</linearGradient>
<linearGradient id="paint10_linear_1_150" x1="675.487" y1="63.2979" x2="642.621" y2="338.628" gradientUnits="userSpaceOnUse">
<stop stop-color="#6B01FE"/>
<stop offset="1" stop-color="#040009"/>
</linearGradient>
<linearGradient id="paint11_linear_1_150" x1="664.967" y1="9.86464" x2="622.37" y2="183.841" gradientUnits="userSpaceOnUse">
<stop stop-color="#6B01FE"/>
<stop offset="1" stop-color="#6B01FE" stop-opacity="0"/>
</linearGradient>
<linearGradient id="paint12_linear_1_150" x1="735.905" y1="293.731" x2="707.195" y2="156.087" gradientUnits="userSpaceOnUse">
<stop stop-color="#6B01FE"/>
<stop offset="1" stop-color="#040009" stop-opacity="0"/>
</linearGradient>
<linearGradient id="paint13_linear_1_150" x1="676.177" y1="62.7751" x2="675.962" y2="39.3158" gradientUnits="userSpaceOnUse">
<stop stop-color="white"/>
<stop offset="1" stop-color="#CB00FE" stop-opacity="0"/>
</linearGradient>
<linearGradient id="paint14_linear_1_150" x1="464.818" y1="260.917" x2="464.818" y2="314.361" gradientUnits="userSpaceOnUse">
<stop stop-color="#3A0A7D"/>
<stop offset="1"/>
</linearGradient>
<linearGradient id="paint15_linear_1_150" x1="404.002" y1="10.3131" x2="587.451" y2="111.55" gradientUnits="userSpaceOnUse">
<stop stop-color="#B200FE"/>
<stop offset="1" stop-color="#040009"/>
</linearGradient>
<linearGradient id="paint16_linear_1_150" x1="464.491" y1="33.8544" x2="426.412" y2="352.853" gradientUnits="userSpaceOnUse">
<stop stop-color="#6B01FE"/>
<stop offset="1" stop-color="#040009"/>
</linearGradient>
<linearGradient id="paint17_linear_1_150" x1="447.739" y1="-12.088" x2="441.224" y2="136.814" gradientUnits="userSpaceOnUse">
<stop stop-color="#6B01FE"/>
<stop offset="1" stop-color="#6B01FE" stop-opacity="0"/>
</linearGradient>
<linearGradient id="paint18_linear_1_150" x1="630.617" y1="288.185" x2="480.125" y2="77.0315" gradientUnits="userSpaceOnUse">
<stop stop-color="#6B01FE"/>
<stop offset="1" stop-color="#040009" stop-opacity="0"/>
</linearGradient>
<linearGradient id="paint19_linear_1_150" x1="418.097" y1="266.775" x2="388.972" y2="246.55" gradientUnits="userSpaceOnUse">
<stop stop-color="#EA00FE"/>
<stop offset="1" stop-color="#6B01FE" stop-opacity="0"/>
</linearGradient>
<linearGradient id="paint20_linear_1_150" x1="517.242" y1="300.508" x2="543.11" y2="253.3" gradientUnits="userSpaceOnUse">
<stop stop-color="#B200FE"/>
<stop offset="1" stop-color="#6B01FE" stop-opacity="0"/>
</linearGradient>
<linearGradient id="paint21_linear_1_150" x1="830.205" y1="106.379" x2="799.397" y2="231.625" gradientUnits="userSpaceOnUse">
<stop stop-color="#6B01FE"/>
<stop offset="1" stop-color="#6B01FE" stop-opacity="0"/>
</linearGradient>
<linearGradient id="paint22_linear_1_150" x1="838.445" y1="264.662" x2="838.445" y2="299.193" gradientUnits="userSpaceOnUse">
<stop stop-color="#3A0A7D"/>
<stop offset="1" stop-color="#010002"/>
</linearGradient>
<linearGradient id="paint23_linear_1_150" x1="838.397" y1="142.137" x2="817.676" y2="315.317" gradientUnits="userSpaceOnUse">
<stop stop-color="#6B01FE"/>
<stop offset="1" stop-color="#040009"/>
</linearGradient>
<clipPath id="clip0_1_150">
<rect width="163.215" height="209.848" fill="white" transform="translate(0 123.757)"/>
</clipPath>
<clipPath id="clip1_1_150">
<rect width="193.578" height="87.3927" fill="white" transform="translate(157.533 114.692)"/>
</clipPath>
<clipPath id="clip2_1_150">
<rect width="260.068" height="333.605" fill="white" transform="translate(547.04 34.0779)"/>
</clipPath>
<clipPath id="clip3_1_150">
<rect width="66.3622" height="17.9357" fill="white" transform="translate(643.893 200.88)"/>
</clipPath>
<clipPath id="clip4_1_150">
<rect width="170.402" height="41.4493" fill="white" transform="translate(381.128 262.167)"/>
</clipPath>
<clipPath id="clip5_1_150">
<rect width="163.215" height="209.848" fill="white" transform="translate(757.785 123.757)"/>
</clipPath>
</defs>
</svg>
