<svg width="334" height="58" viewBox="0 0 334 58" fill="none" xmlns="http://www.w3.org/2000/svg">
<g clip-path="url(#clip0_450_139)">
<path d="M89.3359 45.1584L86.0646 12.9082H94.1816L95.749 33.2281L104.807 12.9082H111.22L113.372 33.2281L121.804 12.9082H130.596L116.335 45.1584H107.858L105.93 26.9616L97.8132 45.1584H89.3359Z" fill="black"/>
<path d="M141.001 45.8496C137.604 45.8496 134.861 45.1372 132.769 43.7088C130.677 42.2805 129.298 40.3204 128.63 37.8358L135.862 34.0575C136.712 36.73 138.65 38.0662 141.683 38.0662C144.167 38.0662 145.549 37.329 145.822 35.8545C146.004 34.8408 145.305 33.9973 143.73 33.3203C143.485 33.1998 142.383 32.7993 140.41 32.1223C137.621 31.1724 135.512 29.8823 134.088 28.2519C132.664 26.625 132.191 24.3991 132.678 21.5707C133.192 18.6218 134.581 16.3251 136.841 14.684C139.098 13.0395 141.774 12.2207 144.867 12.2207C147.537 12.2207 149.832 12.8587 151.756 14.1311C153.68 15.4071 155.101 17.2253 156.007 19.5894L149.048 23.3677C148.048 21.1241 146.442 20.0041 144.227 20.0041C142.317 20.0041 141.225 20.6953 140.952 22.0776C140.77 22.8467 141.043 23.4847 141.771 23.9915C142.499 24.4984 143.863 25.1045 145.864 25.8133C147.26 26.306 148.394 26.7668 149.276 27.1956C150.154 27.6245 151.074 28.2483 152.029 29.06C152.984 29.8752 153.628 30.9031 153.96 32.1471C154.293 33.3912 154.324 34.8586 154.051 36.5457C153.506 39.5868 152.082 41.8977 149.776 43.4785C147.47 45.0593 144.545 45.8532 140.998 45.8532" fill="black"/>
<path d="M187.712 12.9082L175.705 29.0351L182.436 45.1584H173.658L170.068 36.5917L163.655 45.1584H154.195L166.657 28.4361L160.153 12.9082H168.973L172.293 20.8795L178.252 12.9082H187.712Z" fill="black"/>
<path d="M73.1823 12.8873L66.8217 0L41.3756 45.1127L47.7362 58L73.1823 12.8873Z" fill="black"/>
<path d="M47.7783 12.8873L41.4141 0L15.9681 45.1127L22.3322 58L47.7783 12.8873Z" fill="black"/>
<path d="M16.6643 8.89679L12.7038 0.0429688L8.73975 8.89679L0 12.909L8.73975 16.9212L12.7038 25.7786L16.6643 16.9212L25.4041 12.909L16.6643 8.89679Z" fill="black"/>
<path d="M204.331 25.7928L200.647 12.9268H201.99L205.129 24.0454L208.432 12.9268H209.919L213.221 24.0454L216.36 12.9268H217.703L214.019 25.7928H212.494L209.173 14.6174L205.853 25.7928H204.331Z" fill="black"/>
<path d="M220.226 23.7791C220.915 24.4845 221.762 24.8354 222.766 24.8354C223.77 24.8354 224.617 24.4845 225.306 23.7791C225.995 23.0738 226.341 22.2125 226.341 21.1988C226.341 20.1852 225.995 19.3203 225.306 18.615C224.617 17.9097 223.77 17.5588 222.766 17.5588C221.762 17.5588 220.915 17.9097 220.226 18.615C219.536 19.3203 219.19 20.1816 219.19 21.1988C219.19 22.2161 219.533 23.0774 220.226 23.7791ZM226.341 16.6018H227.538V25.7923H226.341V23.9918C225.505 25.3387 224.284 26.0156 222.675 26.0156C221.38 26.0156 220.278 25.5513 219.365 24.6192C218.452 23.687 217.997 22.5492 217.997 21.1988C217.997 19.8484 218.452 18.7107 219.365 17.7785C220.278 16.8464 221.38 16.382 222.675 16.382C224.284 16.382 225.505 17.0555 226.341 18.4023V16.6018Z" fill="black"/>
<path d="M231.128 19.0084C231.128 19.4267 231.31 19.7563 231.673 20.0008C232.037 20.2454 232.478 20.4368 232.999 20.5715C233.521 20.7062 234.039 20.855 234.56 21.0216C235.081 21.1882 235.522 21.4611 235.886 21.8475C236.25 22.2338 236.432 22.7406 236.432 23.3644C236.432 24.1478 236.127 24.7857 235.515 25.2749C234.903 25.764 234.116 26.0121 233.146 26.0121C232.275 26.0121 231.534 25.8172 230.925 25.4237C230.316 25.0303 229.889 24.5235 229.644 23.8996L230.659 23.2936C230.827 23.7721 231.135 24.1478 231.576 24.4242C232.016 24.7007 232.541 24.8389 233.143 24.8389C233.745 24.8389 234.231 24.7184 234.63 24.4809C235.029 24.2435 235.228 23.8713 235.228 23.368C235.228 22.9533 235.046 22.6201 234.682 22.3756C234.318 22.131 233.878 21.9396 233.356 21.8049C232.835 21.6702 232.317 21.5214 231.796 21.3548C231.275 21.1882 230.834 20.9153 230.47 20.529C230.106 20.1426 229.924 19.6358 229.924 19.012C229.924 18.2641 230.218 17.6403 230.806 17.137C231.394 16.6337 232.132 16.382 233.027 16.382C233.766 16.382 234.413 16.5522 234.969 16.8889C235.526 17.2256 235.938 17.6828 236.204 18.257L235.207 18.8454C234.857 17.9876 234.13 17.5588 233.031 17.5588C232.51 17.5588 232.062 17.6828 231.687 17.9345C231.313 18.1861 231.124 18.5441 231.124 19.0084" fill="black"/>
<path d="M242.684 16.379C243.786 16.379 244.654 16.7192 245.287 17.3997C245.924 18.0803 246.239 18.9947 246.239 20.1466V25.7893H245.042V20.1466C245.042 19.3243 244.829 18.6899 244.398 18.2362C243.968 17.7825 243.363 17.5557 242.575 17.5557C241.704 17.5557 240.997 17.8357 240.452 18.3922C239.906 18.9486 239.636 19.8099 239.636 20.976V25.7928H238.44V12.9268H239.636V18.0377C240.315 16.9354 241.33 16.3825 242.684 16.3825" fill="black"/>
<path d="M248.674 16.6018H249.87V25.7924H248.674V16.6018ZM249.888 14.3972C249.72 14.5674 249.513 14.656 249.272 14.656C249.031 14.656 248.824 14.5709 248.656 14.3972C248.485 14.2271 248.401 14.018 248.401 13.7734C248.401 13.5289 248.485 13.3197 248.656 13.1496C248.824 12.9795 249.031 12.8909 249.272 12.8909C249.513 12.8909 249.72 12.9759 249.888 13.1496C250.056 13.3197 250.143 13.5289 250.143 13.7734C250.143 14.018 250.059 14.2271 249.888 14.3972Z" fill="black"/>
<path d="M256.763 16.3789C257.865 16.3789 258.732 16.7192 259.366 17.3997C260.003 18.0802 260.317 18.9946 260.317 20.1466V25.7892H259.121V20.1466C259.121 19.3243 258.907 18.6898 258.477 18.2362C258.047 17.7825 257.441 17.5556 256.654 17.5556C255.783 17.5556 255.076 17.8356 254.531 18.3921C253.985 18.9486 253.715 19.8099 253.715 20.9759V25.7927H252.519V16.6022H253.715V18.0377C254.394 16.9354 255.409 16.3825 256.763 16.3825" fill="black"/>
<path d="M264.439 23.7791C265.128 24.4845 265.975 24.8354 266.979 24.8354C267.983 24.8354 268.83 24.4845 269.519 23.7791C270.208 23.0738 270.555 22.2125 270.555 21.1988C270.555 20.1852 270.208 19.3203 269.519 18.615C268.83 17.9097 267.983 17.5588 266.979 17.5588C265.975 17.5588 265.128 17.9097 264.439 18.615C263.75 19.3203 263.403 20.1816 263.403 21.1988C263.403 22.2161 263.746 23.0774 264.439 23.7791ZM270.555 16.6018H271.751V25.4237C271.751 26.7458 271.303 27.7878 270.408 28.5499C269.512 29.3084 268.441 29.6911 267.196 29.6911C265.065 29.6911 263.634 28.9433 262.896 27.4476L263.949 26.8415C264.495 27.9579 265.576 28.5144 267.196 28.5144C268.235 28.5144 269.054 28.2344 269.655 27.6779C270.254 27.1215 270.555 26.3701 270.555 25.4273V23.9918C269.718 25.3387 268.497 26.0156 266.888 26.0156C265.593 26.0156 264.491 25.5513 263.578 24.6192C262.665 23.687 262.21 22.5492 262.21 21.1988C262.21 19.8484 262.665 18.7107 263.578 17.7785C264.491 16.8464 265.593 16.382 266.888 16.382C268.497 16.382 269.718 17.0555 270.555 18.4023V16.6018Z" fill="black"/>
<path d="M279.207 17.7789H276.593V23.3471C276.593 23.8504 276.691 24.2084 276.884 24.421C277.076 24.6372 277.366 24.7471 277.755 24.7506C278.143 24.7577 278.626 24.7506 279.207 24.7223V25.7891C277.937 25.9841 276.985 25.8919 276.348 25.5127C275.715 25.1334 275.397 24.4104 275.397 23.3435V17.7753H273.493V16.5986H275.397V14.394L276.593 14.0254V16.5986H279.207V17.7753V17.7789Z" fill="black"/>
<path d="M282.454 23.7791C283.143 24.4845 283.99 24.8354 284.994 24.8354C285.998 24.8354 286.844 24.4845 287.534 23.7791C288.223 23.0738 288.566 22.2125 288.566 21.1953C288.566 20.1781 288.223 19.3168 287.534 18.6115C286.844 17.9061 285.998 17.5552 284.994 17.5552C283.99 17.5552 283.143 17.9061 282.454 18.6115C281.764 19.3168 281.418 20.1781 281.418 21.1953C281.418 22.2125 281.761 23.0738 282.454 23.7791ZM288.377 24.6262C287.453 25.5513 286.323 26.0156 284.994 26.0156C283.664 26.0156 282.534 25.5549 281.61 24.6262C280.687 23.7012 280.221 22.5599 280.221 21.1988C280.221 19.8378 280.683 18.6965 281.61 17.7714C282.534 16.8464 283.664 16.382 284.994 16.382C286.323 16.382 287.453 16.8464 288.377 17.7714C289.301 18.6965 289.766 19.8378 289.766 21.1988C289.766 22.5599 289.304 23.7012 288.377 24.6262Z" fill="black"/>
<path d="M296.116 16.3789C297.218 16.3789 298.086 16.7192 298.719 17.3997C299.356 18.0802 299.671 18.9946 299.671 20.1466V25.7892H298.474V20.1466C298.474 19.3243 298.261 18.6898 297.83 18.2362C297.4 17.7825 296.795 17.5556 296.008 17.5556C295.136 17.5556 294.43 17.8356 293.884 18.3921C293.338 18.9486 293.069 19.8099 293.069 20.9759V25.7927H291.872V16.6022H293.069V18.0377C293.747 16.9354 294.762 16.3825 296.116 16.3825" fill="black"/>
<path d="M205.545 45.2934C204.384 45.2934 203.39 45.0134 202.561 44.457C201.732 43.9005 201.154 43.1314 200.829 42.1496L201.917 41.5045C202.148 42.302 202.571 42.9223 203.187 43.3688C203.803 43.8154 204.597 44.0387 205.563 44.0387C206.528 44.0387 207.242 43.8261 207.767 43.4043C208.292 42.9825 208.558 42.4225 208.558 41.7243C208.558 41.026 208.316 40.5404 207.833 40.2002C207.351 39.8564 206.549 39.5019 205.44 39.1333C204.121 38.6938 203.25 38.3358 202.827 38.0665C201.858 37.4781 201.375 36.6275 201.375 35.511C201.375 34.3945 201.749 33.5616 202.498 32.9307C203.247 32.2998 204.174 31.9843 205.272 31.9843C206.262 31.9843 207.123 32.2431 207.847 32.7641C208.572 33.2851 209.11 33.9515 209.464 34.7596L208.393 35.3657C207.812 33.9444 206.773 33.232 205.272 33.232C204.485 33.232 203.852 33.4269 203.365 33.8203C202.883 34.2138 202.641 34.756 202.641 35.4543C202.641 36.0923 202.858 36.5708 203.295 36.8862C203.729 37.2052 204.45 37.5313 205.454 37.8609C205.913 38.0204 206.245 38.1338 206.444 38.2012C206.644 38.2685 206.934 38.3784 207.316 38.5308C207.697 38.6832 207.977 38.8179 208.159 38.9348C208.341 39.0518 208.561 39.2113 208.82 39.4133C209.079 39.6154 209.268 39.8174 209.383 40.0194C209.499 40.2215 209.6 40.466 209.691 40.7531C209.782 41.0402 209.828 41.3521 209.828 41.6817C209.828 42.7734 209.436 43.6453 208.649 44.301C207.861 44.9567 206.829 45.2828 205.545 45.2828" fill="black"/>
<path d="M216.468 37.0563H213.855V42.6245C213.855 43.1278 213.953 43.4858 214.145 43.6985C214.337 43.9147 214.628 44.0246 215.016 44.0281C215.405 44.0352 215.887 44.0281 216.468 43.9998V45.0666C215.198 45.2615 214.246 45.1694 213.61 44.7901C212.976 44.4109 212.658 43.6878 212.658 42.621V37.0528H210.755V35.8761H212.658V33.6715L213.855 33.3029V35.8761H216.468V37.0528V37.0563Z" fill="black"/>
<path d="M219.715 43.0602C220.404 43.7655 221.251 44.1164 222.255 44.1164C223.259 44.1164 224.106 43.7655 224.795 43.0602C225.484 42.3548 225.827 41.4936 225.827 40.4763C225.827 39.4591 225.484 38.5978 224.795 37.896C224.106 37.1907 223.259 36.8398 222.255 36.8398C221.251 36.8398 220.404 37.1907 219.715 37.896C219.026 38.6014 218.679 39.4626 218.679 40.4763C218.679 41.49 219.022 42.3548 219.715 43.0602ZM225.638 43.9073C224.715 44.8324 223.585 45.2967 222.255 45.2967C220.926 45.2967 219.795 44.8359 218.872 43.9073C217.948 42.9822 217.483 41.8409 217.483 40.4799C217.483 39.1188 217.945 37.9776 218.872 37.0525C219.795 36.1274 220.926 35.6631 222.255 35.6631C223.585 35.6631 224.715 36.1274 225.638 37.0525C226.562 37.9776 227.027 39.1188 227.027 40.4799C227.027 41.8409 226.565 42.9822 225.638 43.9073Z" fill="black"/>
<path d="M233.36 45.2935C231.992 45.2935 230.855 44.8327 229.949 43.9076C229.042 42.9825 228.588 41.8377 228.588 40.4802C228.588 39.1227 229.042 37.9779 229.949 37.0528C230.855 36.1277 231.992 35.667 233.36 35.667C234.256 35.667 235.06 35.8832 235.774 36.3191C236.488 36.7551 237.009 37.3399 237.334 38.0736L236.355 38.6442C236.113 38.0913 235.722 37.6554 235.186 37.3293C234.647 37.0032 234.039 36.8437 233.363 36.8437C232.359 36.8437 231.513 37.1946 230.823 37.8999C230.134 38.6052 229.788 39.4665 229.788 40.4802C229.788 41.4939 230.131 42.3587 230.823 43.0641C231.513 43.7694 232.359 44.1203 233.363 44.1203C234.042 44.1203 234.644 43.9572 235.179 43.6347C235.711 43.3086 236.127 42.8727 236.432 42.3197L237.429 42.9081C237.055 43.6418 236.502 44.2266 235.777 44.6555C235.053 45.0843 234.249 45.297 233.363 45.297" fill="black"/>
<path d="M246.585 45.0702H244.99L240.452 40.6432V45.0702H239.255V32.2041H240.452V39.945L244.773 35.8832H246.403L241.722 40.2923L246.585 45.0702Z" fill="black"/>
<path d="M254.422 43.858H260.594V45.0702H253.152V32.2041H260.503V33.4198H254.422V37.9779H260.048V39.19H254.422V43.858Z" fill="black"/>
<path d="M270.317 45.0698H268.882L266.052 41.2844L263.221 45.0698H261.79L265.345 40.3097L262.025 35.8828H263.459L266.052 39.3563L268.648 35.8828H270.082L266.779 40.3097L270.317 45.0698Z" fill="black"/>
<path d="M275.652 45.2935C274.284 45.2935 273.147 44.8327 272.241 43.9076C271.335 42.9825 270.88 41.8377 270.88 40.4802C270.88 39.1227 271.335 37.9779 272.241 37.0528C273.147 36.1277 274.284 35.667 275.652 35.667C276.548 35.667 277.352 35.8832 278.066 36.3191C278.78 36.7551 279.301 37.3399 279.627 38.0736L278.647 38.6442C278.406 38.0913 278.014 37.6554 277.478 37.3293C276.94 37.0032 276.331 36.8437 275.656 36.8437C274.651 36.8437 273.805 37.1946 273.116 37.8999C272.426 38.6052 272.08 39.4665 272.08 40.4802C272.08 41.4939 272.423 42.3587 273.116 43.0641C273.805 43.7694 274.651 44.1203 275.656 44.1203C276.334 44.1203 276.936 43.9572 277.471 43.6347C278.003 43.3086 278.42 42.8727 278.724 42.3197L279.721 42.9081C279.347 43.6418 278.794 44.2266 278.07 44.6555C277.345 45.0843 276.541 45.297 275.656 45.297" fill="black"/>
<path d="M285.791 35.6602C286.894 35.6602 287.761 36.0005 288.394 36.681C289.031 37.3615 289.346 38.276 289.346 39.4279V45.0705H288.15V39.4279C288.15 38.6056 287.936 37.9711 287.506 37.5175C287.075 37.0638 286.47 36.8369 285.683 36.8369C284.812 36.8369 284.105 37.117 283.559 37.6734C283.013 38.2299 282.744 39.0912 282.744 40.2573V45.0741H281.547V32.208H282.744V37.319C283.423 36.2167 284.437 35.6638 285.791 35.6638" fill="black"/>
<path d="M293.468 43.0605C294.157 43.7658 295.003 44.1167 296.008 44.1167C297.012 44.1167 297.858 43.7658 298.548 43.0605C299.237 42.3552 299.583 41.4939 299.583 40.4767C299.583 39.4594 299.237 38.5982 298.548 37.8928C297.858 37.1875 297.012 36.8366 296.008 36.8366C295.003 36.8366 294.157 37.1875 293.468 37.8928C292.778 38.5982 292.432 39.4594 292.432 40.4767C292.432 41.4939 292.775 42.3552 293.468 43.0605ZM299.583 35.8832H300.78V45.0737H299.583V43.2732C298.747 44.62 297.526 45.297 295.917 45.297C294.622 45.297 293.52 44.8327 292.607 43.9005C291.694 42.9684 291.239 41.8306 291.239 40.4838C291.239 39.1369 291.694 37.9956 292.607 37.0634C293.52 36.1313 294.622 35.667 295.917 35.667C297.526 35.667 298.747 36.3404 299.583 37.6873V35.8867V35.8832Z" fill="black"/>
<path d="M307.672 35.6602C308.774 35.6602 309.642 36.0004 310.275 36.6809C310.912 37.3615 311.227 38.2759 311.227 39.4278V45.0704H310.03V39.4278C310.03 38.6055 309.817 37.9711 309.387 37.5174C308.956 37.0637 308.351 36.8369 307.564 36.8369C306.693 36.8369 305.986 37.1169 305.44 37.6734C304.894 38.2298 304.625 39.0911 304.625 40.2572V45.074H303.428V35.8835H304.625V37.3189C305.304 36.2166 306.318 35.6637 307.672 35.6637" fill="black"/>
<path d="M315.348 43.0602C316.038 43.7655 316.884 44.1164 317.888 44.1164C318.893 44.1164 319.739 43.7655 320.429 43.0602C321.118 42.3548 321.464 41.4936 321.464 40.4763C321.464 39.4591 321.118 38.5978 320.429 37.8925C319.739 37.1872 318.893 36.8363 317.888 36.8363C316.884 36.8363 316.038 37.1872 315.348 37.8925C314.659 38.5978 314.313 39.4591 314.313 40.4763C314.313 41.4936 314.656 42.3548 315.348 43.0602ZM321.464 35.8828H322.661V44.7048C322.661 46.0268 322.213 47.0689 321.317 47.8309C320.422 48.5894 319.351 48.9686 318.105 48.9686C315.978 48.9686 314.544 48.2208 313.805 46.7251L314.859 46.119C315.404 47.2354 316.486 47.7919 318.105 47.7919C319.145 47.7919 319.967 47.5119 320.565 46.9554C321.163 46.399 321.464 45.6476 321.464 44.7048V43.2693C320.628 44.6162 319.407 45.2931 317.798 45.2931C316.503 45.2931 315.401 44.8288 314.488 43.8966C313.575 42.9645 313.12 41.8267 313.12 40.4799C313.12 39.133 313.575 37.9917 314.488 37.0596C315.401 36.1274 316.503 35.6631 317.798 35.6631C319.407 35.6631 320.628 36.3365 321.464 37.6834V35.8828Z" fill="black"/>
<path d="M329.501 36.8369C328.556 36.8369 327.769 37.1204 327.132 37.6911C326.499 38.2617 326.117 38.9989 325.998 39.9063H332.765C332.643 38.9387 332.275 38.1837 331.659 37.645C331.044 37.1063 330.323 36.8369 329.501 36.8369ZM329.501 35.6602C330.844 35.6602 331.929 36.1422 332.758 37.1027C333.587 38.0668 334 39.201 334 40.5124C334 40.6471 333.986 40.8385 333.965 41.083H325.998C326.121 42.0152 326.509 42.7524 327.171 43.2983C327.828 43.8441 328.644 44.117 329.609 44.117C330.298 44.117 330.893 43.9717 331.397 43.6846C331.897 43.3975 332.279 43.0183 332.531 42.5539L333.584 43.1778C333.185 43.8264 332.639 44.3403 331.95 44.7231C331.261 45.1023 330.473 45.2937 329.592 45.2937C328.164 45.2937 327.003 44.8401 326.107 43.9327C325.211 43.0253 324.763 41.8734 324.763 40.4769C324.763 39.0805 325.204 37.9604 326.089 37.0389C326.971 36.1209 328.108 35.6602 329.501 35.6602Z" fill="black"/>
</g>
<defs>
<clipPath id="clip0_450_139">
<rect width="334" height="58" fill="white"/>
</clipPath>
</defs>
</svg>
